<?xml version="1.0" encoding="utf-8"?>
<!-- Generator: Adobe Illustrator 16.0.0, SVG Export Plug-In . SVG Version: 6.00 Build 0)  -->
<!DOCTYPE svg PUBLIC "-//W3C//DTD SVG 1.1//EN" "http://www.w3.org/Graphics/SVG/1.1/DTD/svg11.dtd">
<svg version="1.1" xmlns="http://www.w3.org/2000/svg" xmlns:xlink="http://www.w3.org/1999/xlink" x="0px" y="0px" width="864px"
	 height="864px" viewBox="0 0 864 864" enable-background="new 0 0 864 864" xml:space="preserve">
<g id="final">
</g>
<g id="Layer_9">
	<rect id="background" fill="#FFFFFF" stroke="#000000" stroke-miterlimit="10" width="864" height="864"/>
	<path id="outline" fill="#FFFFFF" stroke="#ED1C24" stroke-miterlimit="10" d="M377.422,806.619h-58.816l-24.473-0.727v-29.193
		c0-4.453,1.217-8.844,3.52-12.695l0.9-1.506l1.174-1.305c0.037-0.041,0.152-0.176,0.428-0.529l1.014-1.309l1.232-1.1
		c1.773-1.58,3.715-2.879,5.803-3.881c-31.93-30.838-49.932-72.883-49.932-117.836c0-0.682,0.004-1.367,0.012-2.053
		c-0.146-1.09-0.221-2.182-0.221-3.268v-30.637c-5.711-5.242-13.922-13.678-21.979-25.098c-7.18-10.178-13.111-21.24-17.539-32.883
		c-4.803-12.627-6.639-26.17-8.037-39.531c-0.779-7.449-0.846-15.021-0.312-22.488c0.879-12.271,1.688-24.549,2.541-36.82
		c0.234-3.365,0.469-6.73,0.699-10.094c0.627-9.211,1.246-18.459,1.855-27.686l0.236-3.521c1.156-17.31,2.354-35.209,3.707-52.823
		c1.766-23.074,6.973-41.079,16.881-58.37c6.785-11.85,14.648-21.142,23.486-27.77v-72.094c-0.357-4.447-0.539-8.93-0.539-13.336
		c0-90.127,73.322-163.449,163.449-163.449c85.646,0,156.99,66.535,163.052,151.74c0.279,1.507,0.42,3.016,0.42,4.51v69.227
		c10.876,3.254,18.449,14.386,18.449,28.402c0,13.447-6.966,24.24-17.13,27.973v97.819l0,0l-21.16-0.048v56.486h92.371l0.251,0.008
		c2.491,0.068,15.392,0.932,24.635,11.113c5.669,6.275,8.45,14.312,8.098,23.312l0.209,21.867H586.673v54.479
		c0,0.762-0.037,1.529-0.11,2.299v67.412c0,0.547-0.021,1.061-0.051,1.523c0.031,1.391,0.051,2.615,0.051,3.797
		c0,45.107-18.093,87.234-50.194,118.104c1.37,0.699,2.68,1.529,3.909,2.477l0.148,0.115c2.022,1.592,3.775,3.471,5.21,5.584
		c2.793,4.135,4.257,8.922,4.257,13.881v29.92h-69.877l-24.437,0.139l0,0c0,0-21.297,0-32.476,0c-8.182,0-31.91-0.139-31.91-0.139
		l0,0l0,0h-6.678l0,0H377.422z"/>
	<g id="main_lines">
		<path fill="#58595B" d="M673.489,484.832c0.254-4.432-0.895-8.094-3.416-10.879c-4.432-4.883-11.462-5.213-11.811-5.223H548.144
			v-98.024h2.842c0,0.104,0.01,0.207,0.01,0.312c0.179,4.347,3.341,5.156,3.472,5.193l10.625,0.028v-5.533h4.207v-9.467h-4.207
			v-5.231h-14.079l-0.018,0.922c0,0.179-0.028,1.985-0.046,4.31h-2.806v-6.069h7.727l2.729-1.703l4.781-2.277v-5.393l-3.962-2.268
			l-0.011-0.498l3.973-1.883v-5.393l-4.058-2.314l-0.018-1.11v-0.489l0.01-1.816h9.984v-21.475h-5.919v-34.309
			c1.176,0.216,2.427,0.318,3.716,0.318c2.099,0,4.104-0.281,5.844-0.836c1.205,3.773,3.633,6.154,6.353,6.154
			c4.009,0,7.142-4.998,7.142-11.377c0-6.381-3.133-11.378-7.142-11.378c-2.72,0-5.147,2.381-6.353,6.155
			c-1.496-0.471-3.189-0.754-4.959-0.819v-91.591c0-0.658-0.104-1.316-0.292-1.957c-4.762-76.439-68.497-136.299-145.173-136.299
			c-80.203,0-145.453,65.252-145.453,145.455c0,4.15,0.178,8.385,0.543,12.591v75.264c0,2.851,1.791,5.298,4.303,6.276l-1.639,0.085
			l-0.225,0.085c-10.719,4.395-20.25,13.768-28.316,27.854c-8.506,14.85-12.994,30.518-14.549,50.797
			c-1.439,18.708-2.699,37.745-3.924,56.151c-0.609,9.241-1.232,18.494-1.861,27.739l-3.717,53.807l-0.01,0.152v0.037l-0.133,1.43
			h0.029v0.01h0.055c-1.072,33.078,11.961,58.861,23.168,74.764c12.008,17.006,24.156,26.322,25.277,27.168v38.939
			c0,0.604,0.084,1.215,0.244,1.799c-0.027,1.176-0.037,2.352-0.037,3.527c0,46.883,22.189,88.684,56.611,115.438
			c-0.037,7.217-11.32,15.525-15.922,18.244c-0.973,0.291-1.836,0.799-2.574,1.465c-0.418,0.527-0.838,1.051-1.283,1.553
			c-0.607,1.018-0.969,2.193-0.969,3.459v11.715l6.736,0.197h54.326v-2.795l0.15,0.057c1.77-4.459,4.781-9.391,6.305-9.391
			c0.01,0,0.02,0,0.02,0l0.01-0.16c6.756,2.07,13.73,3.66,20.863,4.742c7.141,1.072,14.443,1.629,21.867,1.629
			c15.527,0,30.5-2.439,44.55-6.936c2.644,1.383,6.305,4.094,6.332,5.908h0.245v6.748l6.747,0.197h51.606v-11.912
			c0-1.393-0.423-2.691-1.148-3.773c-0.404-0.584-0.896-1.111-1.45-1.545c-0.479-0.377-1.005-0.688-1.571-0.922l-0.3-0.178
			c-4.461-2.625-15.556-10.719-15.979-17.898c34.714-26.754,57.12-68.723,57.12-115.842c0-1.336-0.028-2.729-0.075-4.385
			c0.047-0.338,0.075-0.648,0.075-0.941v-68.525c0.065-0.395,0.104-0.789,0.104-1.186v-25.135c0-3.396-2.521-6.209-5.807-6.662
			v-4.941h1.516v-4.355c0.093-0.451,0.037-1.092-0.386-1.686c-0.715-0.996-2.211-1.486-4.555-1.486h-9.345
			c1.006-1.732,1.581-3.746,1.581-5.881c0-2.777-0.97-5.326-2.588-7.34c2.475-0.207,6.418-0.875,10.69-2.945
			c5.383-2.607,9.806-6.643,13.212-12.045h100.549L673.489,484.832z M565.092,363.122h2.325v5.702h-2.325V363.122z M563.21,374.357
			h-8.375c-0.386-0.15-1.854-0.856-1.957-3.416c0-0.075-0.01-0.15-0.01-0.235c-0.02-0.526-0.028-1.167-0.037-1.882h0.093
			c0.188,0.688,0.5,1.326,0.922,1.882c1.073,1.487,2.814,2.446,4.78,2.446c1.845,0,3.492-0.846,4.584-2.174V374.357z
			 M563.342,368.824h-0.132v0.357c-0.245,0.574-0.593,1.092-1.025,1.524c-0.903,0.932-2.165,1.506-3.559,1.506
			c-1.392,0-2.652-0.574-3.556-1.506c-0.519-0.526-0.922-1.167-1.158-1.882c-0.178-0.499-0.273-1.035-0.273-1.6
			c0-1.703,0.857-3.209,2.165-4.103c0.801-0.556,1.778-0.886,2.822-0.886c1.045,0,2.024,0.33,2.824,0.886
			c0.771,0.526,1.394,1.27,1.76,2.146c0.264,0.602,0.405,1.26,0.405,1.957C563.615,367.789,563.521,368.325,563.342,368.824z
			 M552.82,363.122c0-0.649,0.011-1.28,0.011-1.883c0.018-1.384,0.027-2.578,0.037-3.35h10.342v5.58
			c-0.103-0.122-0.207-0.235-0.32-0.348c-1.071-1.13-2.588-1.826-4.264-1.826c-1.673,0-3.188,0.696-4.262,1.826
			c-0.781,0.8-1.336,1.825-1.553,2.964C552.812,365.116,552.812,364.101,552.82,363.122z M559.492,345.75l2.006,1.139v3.115
			l-2.006,0.949V345.75z M559.492,335.7l2.006,1.147v3.105l-2.006,0.961V335.7z M550.938,363.122
			c-0.009,1.938-0.019,4.019,0.011,5.702h-2.806v-5.702H550.938z M555.323,353.288h-7.18v-3.576
			c2.635-2.175,4.328-5.477,4.328-9.156c0-2.551-0.799-4.903-2.163-6.831h7.133l0.169,18.143L555.323,353.288z M548.144,347.086
			v-13.07c1.524,1.75,2.446,4.037,2.446,6.54S549.668,345.346,548.144,347.086z M557.508,308.551l-0.01,1.883l-0.057,17.71v1.882
			l-0.009,1.797l-7.199-0.15l-0.95-1.646l-1.083-1.882l-0.057-0.095v-0.197h-0.113l-6.464-11.207l0.141-6.211l0.038-1.883
			l0.547-24.691c1.129-1.008,2.098-2.277,2.897-3.605c0.019-0.018,0.038-0.037,0.047-0.065c1.364-1.759,2.333-3.83,2.776-6.098
			c0.047-0.15,0.094-0.282,0.131-0.404l9.467,0.63L557.508,308.551z M556.886,497.178c-2.54,1.262-5.439,2.117-8.742,2.352v-7.734
			h4.584v5.383H556.886z M552.735,489.912h-4.592v-4.441h4.592V489.912z M548.144,524.768h1.647v4.865h-1.647V524.768z
			 M547.202,331.86v198.62h-1.101c-0.179-0.291-0.377-0.574-0.574-0.848c-0.075-0.092-0.141-0.188-0.207-0.271V340.875
			c0.019-0.104,0.019-0.207,0.019-0.319s0-0.216-0.019-0.319v-11.443h1.083l0.715,1.232l0.084,0.15v1.666h-0.018
			C547.193,331.842,547.202,331.86,547.202,331.86z M425.461,486.205v-6.389c0.02-0.34,0.668-8.264,10.428-8.264h83.102l0.086,4.912
			h0.028c-0.048,0.35-0.085,0.971-0.085,2.146l-0.988-0.979l-4.141,3.162l0.226,0.648c0.02,0.066,0.734,2.023,2.343,4.762H425.461z
			 M470.208,489.029v6.428c-1.845-0.631-3.698-1.215-5.571-1.762v-4.666H470.208z M463.695,489.029v4.395
			c-6.869-1.967-13.918-3.445-21.106-4.395H463.695z M323.031,280.312c-0.641,0.63-1.355,1.194-2.117,1.675
			c-0.029,0.028-0.059,0.047-0.096,0.065c-0.215,0.142-0.441,0.272-0.678,0.396c-0.008,0.01-0.027,0.028-0.055,0.028
			c-1.789,0.969-3.83,1.515-6.006,1.515c-2.002,0-3.904-0.471-5.598-1.299h-0.01l-0.01-0.008c-0.178-0.076-0.338-0.17-0.518-0.273
			c-1.033-0.565-1.984-1.281-2.822-2.099c-1.6-1.581-2.785-3.576-3.369-5.815c-0.084-0.293-0.15-0.593-0.197-0.895
			c-0.066-0.311-0.113-0.621-0.143-0.941c-0.045-0.328-0.064-0.658-0.074-0.988c-0.01-0.141-0.01-0.271-0.01-0.414v-0.009
			c0-0.479,0.029-0.95,0.084-1.412c0.697-6.36,6.117-11.329,12.666-11.329c7.021,0,12.744,5.721,12.744,12.741
			c0,3.528-1.451,6.737-3.773,9.044C323.041,280.302,323.041,280.302,323.031,280.312z M351.496,305.032
			c0.039,0.019,0.066,0.036,0.104,0.056c3.736,2.25,7.557,4.291,11.266,5.91c-13.127,1.675-43.26,5.693-46.799,7.82
			c-2.691,1.609-5.881,3.744-8.121,6.38v-39.729c1.656,0.254,4.32,0.573,6.984,0.573c3.828,0,6.455-0.659,7.941-2.015
			C331.584,292.225,341.201,299.264,351.496,305.032z M307.945,480.588c1.592,1.74,3.201,4.197,3.596,7.236l-3.596-0.01V480.588z
			 M301.557,487.787v-10.043c1.553,0.02,2.664,0.039,3.219,0.049c0.094,0.066,0.217,0.15,0.348,0.244v9.768L301.557,487.787z
			 M305.123,490.629v37.48c-0.688,0.451-1.336,0.959-1.939,1.523h-1.627v-39.014L305.123,490.629z M301.557,474.914V278.806
			c0.941,1.543,2.146,2.898,3.566,3.999v192.164C304.758,474.961,303.494,474.941,301.557,474.914z M303.129,532.457
			c0.873-1.102,1.918-2.061,3.105-2.824c0.545-0.357,1.119-0.668,1.711-0.93c1.592-0.717,3.352-1.111,5.195-1.111
			c2.352,0,4.564,0.641,6.455,1.77c0.828,0.479,1.59,1.064,2.285,1.713c2.459,2.324,4,5.617,4,9.258
			c0,7.031-5.721,12.742-12.74,12.742c-7.029,0-12.752-5.711-12.752-12.742C300.389,537.359,301.414,534.631,303.129,532.457z
			 M320.988,528.006c-2.258-1.457-4.959-2.297-7.848-2.297c-1.826,0-3.584,0.34-5.195,0.951v-25.502h2.42
			c1.344,2.475,5.984,9.814,15.141,13.438l0.244,0.104h11.246C331.377,518.719,326.033,523.15,320.988,528.006z M326.295,511.875
			c-9.607-3.932-13.748-12.637-13.795-12.721l-0.375-0.82h-4.18v-7.695l3.982,0.018c3.895,15.273,18.848,16.977,19.008,16.994
			l16.816,0.01l-7.133,4.215H326.295z M331.16,504.838c-1.166-0.143-13.699-1.967-16.703-15.725c0,0,0,0,0-0.01v-0.01
			c-0.064-6.107-4.018-10.359-6.512-12.449V331.917c0-4.423,5.459-8.215,9.57-10.681c2.814-1.693,32.646-5.844,50.996-8.093
			c16.965,6.794,35.26,10.389,54.004,10.389c38.16,0,74.456-14.905,101.511-41.302c2.567,2.268,5.947,3.643,9.645,3.643
			c0.688,0,1.354-0.047,2.014-0.143c-0.019,0.67-0.019,1.563-0.019,2.768c-0.01,2.344,0,5.448,0,8.563
			c0.019,4.762,0.038,9.522,0.038,11.489h-3.229l-0.198,21.475h2.898c-1.476,0.762-2.766,1.835-3.801,3.115
			c-4.085,0-7.407,3.322-7.407,7.415c0,4.084,3.322,7.405,7.407,7.405c2.174,2.701,5.514,4.442,9.25,4.442
			c1.309,0,2.578-0.216,3.755-0.611v9.447h-2.777c-0.008-2.324-0.036-4.141-0.036-4.31l-0.02-0.922H527.47v5.231h-3.502v9.467h3.502
			v5.533h10.512l0.112-0.028c0.132-0.037,3.294-0.847,3.463-5.193c0-0.104,0.01-0.207,0.01-0.312h2.813v98.024H435.889
			c-12.459,0-13.24,10.803-13.25,10.99v7.971h-0.227c-24.797,0-48.539,5.947-69.531,17.146H331.16z M536.881,340.029
			c0.131-0.951,0.62-1.789,1.326-2.372c0.648-0.556,1.496-0.884,2.418-0.884c0.865,0,1.667,0.291,2.296,0.789l-4.17,3.689v0.01
			l-1.374,1.213c-0.262-0.422-0.433-0.894-0.496-1.401c0.018-0.169,0.026-0.339,0.026-0.518S536.898,340.197,536.881,340.029z
			 M538.451,342.785v-0.009l5.138-4.554c0.433,0.545,0.716,1.213,0.791,1.947v0.771c-0.197,1.9-1.807,3.388-3.755,3.388
			c-0.922,0-1.77-0.329-2.418-0.884c-0.095-0.066-0.179-0.151-0.255-0.227L538.451,342.785z M540.625,335.832
			c-1.081,0-2.07,0.357-2.86,0.969c-0.547,0.414-0.988,0.941-1.317,1.543c-0.348,0.659-0.547,1.412-0.547,2.212
			s0.199,1.544,0.547,2.202c0.329,0.611,0.781,1.139,1.327,1.543c0.79,0.611,1.778,0.97,2.851,0.97c1.533,0,2.898-0.733,3.755-1.882
			v6.398c-1.158,0.471-2.429,0.734-3.755,0.734c-2.738,0-5.213-1.111-7.021-2.898c-0.499-0.489-0.949-1.035-1.327-1.629
			c-1.034-1.562-1.627-3.434-1.627-5.438s0.602-3.887,1.627-5.448c0.387-0.594,0.828-1.139,1.327-1.628
			c1.808-1.788,4.282-2.899,7.021-2.899c1.326,0,2.597,0.264,3.755,0.744v6.391C543.523,336.566,542.158,335.832,540.625,335.832z
			 M534.179,328.144l0.16-17.71h5.486l-0.15,6.69l6.183,10.728h-1.478v0.292H534.179z M539.863,308.551h-2.269
			c-0.047-8.506-0.075-20.288-0.028-23.187l0.037-0.009v-0.029c0.98-0.264,1.911-0.639,2.795-1.101L539.863,308.551z
			 M537.595,283.369c-0.611,0.197-1.231,0.349-1.882,0.451c-0.668,0.113-1.346,0.17-2.042,0.17c-3.171,0-6.06-1.157-8.3-3.086
			c-0.065-0.047-0.132-0.104-0.198-0.16c-0.225-0.207-0.451-0.424-0.677-0.649c-0.377-0.386-0.726-0.81-1.055-1.242
			c-1.58-2.127-2.521-4.762-2.521-7.604c0-7.021,5.722-12.741,12.751-12.741c6.54,0,11.96,4.969,12.657,11.329
			c0.056,0.462,0.084,0.933,0.084,1.412c0,0.169,0,0.339-0.019,0.508c0,0.302-0.028,0.603-0.065,0.903
			c-0.028,0.32-0.075,0.641-0.142,0.941c0,0.01-0.01,0.028-0.01,0.037c-0.376,2.043-1.26,3.906-2.493,5.478
			c0,0.009-0.01,0.009-0.01,0.009C542.132,281.083,540.022,282.589,537.595,283.369z M530.048,345.91
			c-2.409-0.584-4.197-2.767-4.197-5.354c0-2.597,1.788-4.78,4.207-5.374c-0.828,1.609-1.29,3.436-1.29,5.374
			C528.768,342.484,529.229,344.301,530.048,345.91z M541.622,363.122h2.758v5.702h-2.767
			C541.632,367.131,541.632,365.061,541.622,363.122z M529.353,371.055c1.081,1.289,2.71,2.098,4.516,2.098
			c1.968,0,3.708-0.959,4.79-2.446c0.404-0.556,0.715-1.194,0.903-1.882h0.17c-0.011,0.715-0.019,1.355-0.039,1.882
			c0,0.085-0.008,0.16-0.008,0.235c-0.114,2.56-1.572,3.266-1.959,3.416h-8.373V371.055z M529.153,368.824
			c-0.178-0.499-0.271-1.035-0.271-1.6c0-0.753,0.168-1.468,0.471-2.108c0.375-0.81,0.959-1.496,1.685-1.994
			c0.808-0.556,1.777-0.886,2.831-0.886c1.046,0,2.024,0.33,2.824,0.886c1.299,0.894,2.154,2.399,2.154,4.103
			c0,0.564-0.096,1.101-0.272,1.6c-0.235,0.715-0.631,1.355-1.148,1.882c-0.903,0.932-2.165,1.506-3.558,1.506
			s-2.653-0.574-3.566-1.506c-0.386-0.396-0.715-0.866-0.949-1.374C529.276,369.172,529.2,369.003,529.153,368.824z
			 M538.132,363.122c-1.073-1.13-2.588-1.826-4.264-1.826c-1.675,0-3.189,0.696-4.264,1.826h-0.252v-5.232h10.34
			c0.011,0.771,0.021,1.966,0.028,3.35c0.011,0.603,0.021,1.233,0.021,1.883c0.009,1.139,0.009,2.314,0.009,3.425
			C539.6,365.221,539.017,364.035,538.132,363.122z M527.47,363.122v5.702h-1.619v-5.702H527.47z M543.317,508.471
			c0.667,0.781,1.062,1.787,1.062,2.889c0,2.465-2.004,4.469-4.47,4.469c-0.988,0-1.9-0.32-2.636-0.865L543.317,508.471z
			 M536.578,514.332c-0.244-0.271-0.451-0.564-0.62-0.895c-0.329-0.621-0.518-1.326-0.518-2.078c0-1.225,0.488-2.324,1.279-3.135
			c0.819-0.826,1.947-1.336,3.19-1.336c1.025,0,1.977,0.348,2.729,0.932L536.578,514.332z M539.91,505.947
			c-1.365,0-2.597,0.508-3.547,1.348c-0.575,0.479-1.045,1.102-1.355,1.795c-0.329,0.688-0.509,1.461-0.509,2.27
			c0,0.254,0.019,0.508,0.056,0.752c0.104,0.771,0.377,1.486,0.772,2.117c0.961,1.523,2.654,2.541,4.583,2.541
			c1.854,0,3.491-0.93,4.47-2.361v5.76c-1.345,0.686-2.861,1.072-4.47,1.072c-2.307,0-4.423-0.791-6.107-2.127
			c-0.697-0.537-1.308-1.168-1.825-1.873c-0.235-0.32-0.462-0.658-0.658-1.006c-0.331-0.584-0.612-1.205-0.819-1.863
			c-0.302-0.951-0.47-1.959-0.47-3.012c0-2.08,0.639-4,1.739-5.59c0.386-0.564,0.829-1.082,1.318-1.553
			c0.79-0.754,1.712-1.383,2.719-1.844c1.195-0.547,2.522-0.867,3.914-0.895h0.189c1.129,0,2.211,0.188,3.219,0.547
			c0.433,0.141,0.847,0.318,1.251,0.525v5.76C543.401,506.879,541.764,505.947,539.91,505.947z M542.28,522.887
			c0.726-0.15,1.432-0.367,2.1-0.648v0.648H542.28z M544.38,524.768v3.502c-1.411-1.506-3.143-2.701-5.071-3.502H544.38z
			 M537.539,522.887h-12.168c-0.095-0.16-0.282-0.648-0.282-1.883c0-0.471,0-1.9,2.146-1.9c0.179,0,0.3,0.01,0.319,0.01h3.529
			C532.74,521.004,534.987,522.359,537.539,522.887z M538.969,486.205c0.17,0.434,0.254,0.912,0.254,1.412
			c0,0.498-0.084,0.979-0.254,1.412h-0.085l-0.009,0.234c-0.095,0.234-0.217,0.451-0.358,0.648c-0.244,0.359-0.535,0.68-0.884,0.941
			c-0.696,0.555-1.571,0.877-2.521,0.877c-0.952,0-1.826-0.322-2.523-0.877c-0.348-0.262-0.64-0.582-0.884-0.941
			c-0.188-0.273-0.338-0.562-0.452-0.883c-0.169-0.434-0.253-0.914-0.253-1.412c0-0.5,0.084-0.979,0.253-1.412
			c0.095-0.262,0.207-0.508,0.358-0.734c0.207-0.348,0.479-0.668,0.79-0.939c0.527-0.471,1.166-0.799,1.882-0.941
			c0.264-0.057,0.546-0.084,0.829-0.084c0.281,0,0.563,0.027,0.828,0.084c0.715,0.143,1.354,0.471,1.882,0.941
			c0.311,0.271,0.583,0.592,0.79,0.939c0.132,0.207,0.244,0.424,0.328,0.66v0.074H538.969z M538.978,484.381
			c-0.244-0.301-0.526-0.566-0.837-0.791c-0.837-0.65-1.892-1.025-3.029-1.025c-1.14,0-2.193,0.375-3.031,1.025
			c-0.366,0.264-0.687,0.582-0.96,0.941c-0.225,0.289-0.423,0.602-0.574,0.939c-0.121,0.234-0.216,0.48-0.281,0.734
			c-0.085,0.264-0.142,0.537-0.17,0.818v-0.818c0-0.254-0.009-0.5-0.009-0.734c-0.01-0.348-0.01-0.668-0.02-0.939
			c-0.009-0.359-0.019-0.65-0.036-0.877v-0.064c-0.067-1.459,1.119-2.014,1.515-2.164c0.433,0.018,1.608,0.055,3.076,0.055
			c1.045,0,2.023-0.018,2.898-0.055h0.095c0.498,0,0.733,0.188,0.866,0.338c0.366,0.424,0.497,1.205,0.517,1.826
			C539.017,483.918,538.997,484.211,538.978,484.381z M530.038,497.131c0.01-0.33,0.01-0.688,0.02-1.072
			c0-0.35,0.009-0.707,0.009-1.092c0.01-0.98,0.02-2.061,0.028-3.172v-0.941c0.01-0.32,0.01-0.631,0-0.941
			c0.01-0.299,0.01-0.592,0.01-0.883v-0.781c0.029,0.273,0.085,0.525,0.16,0.781c0.084,0.311,0.206,0.602,0.357,0.883
			c0.16,0.34,0.377,0.65,0.621,0.941c0.291,0.367,0.649,0.678,1.034,0.941c0.811,0.555,1.789,0.875,2.834,0.875
			c1.044,0,2.021-0.32,2.832-0.875c0.329-0.227,0.641-0.49,0.894-0.791l-0.009,0.791l-0.065,3.039l-4.828,2.316l-1.064,0.518
			l-0.593,0.281h-1.731c-0.178-0.104-0.348-0.207-0.516-0.311C530.038,497.479,530.038,497.309,530.038,497.131z M534.029,499.201
			c0.79,0.328,1.618,0.631,2.484,0.895c-0.265,0.084-0.528,0.168-0.772,0.264c-0.781-0.273-1.523-0.574-2.249-0.904L534.029,499.201
			z M536.334,498.09l4.282-2.061l0.084-4.234h3.68v7.754C541.331,499.389,538.667,498.863,536.334,498.09z M540.738,489.912
			l0.02-0.883l0.056-2.824l0.02-0.734h3.547v4.441H540.738z M540.88,483.59c-0.02-0.902-0.208-2.184-0.988-3.068
			c-0.565-0.641-1.355-0.979-2.277-0.979h-0.179c-0.848,0.037-1.798,0.055-2.814,0.055c-1.769,0-3.151-0.055-3.162-0.055l-0.14-0.01
			l-0.152,0.037c-1.091,0.293-3.096,1.516-3.029,4.02h-4.121v5.307c-0.659-0.959-1.195-1.873-1.619-2.691
			c-0.866-1.674-1.279-2.936-1.393-3.322c-0.037-0.986-0.065-2.021-0.076-2.953v-0.049l0.058-2.492h23.394v6.201H540.88z
			 M526.369,491.795h1.834c0,0.592,0,1.166-0.01,1.732C527.534,492.961,526.924,492.379,526.369,491.795z M528.175,495.832
			c0,0.207-0.009,0.395-0.009,0.582c-1.544-1.09-2.918-2.266-4.132-3.471l-2.615-3.914h0.527
			C523.338,491.201,525.353,493.668,528.175,495.832z M525.898,489.912v-4.441h2.305c0,0.234,0.01,0.48,0.01,0.734
			c0.01,0.838,0.01,1.807,0.01,2.824c0,0.291,0,0.584-0.01,0.883H525.898z M520.939,475.506l-0.067-3.953h23.508v3.953H520.939z
			 M520.347,486.205h-1.695c-1.326-2.125-2.136-3.877-2.512-4.762l1.732-1.316l1.193,1.193c0.019,0.529,0.039,1.111,0.066,1.752
			l0.029,0.215C519.169,483.336,519.498,484.492,520.347,486.205z M471.149,489.029h31.703v0.018
			c-1.168,8.582-13.842,14.125-13.975,14.182l-0.02,0.01c-5.721-2.871-11.631-5.365-17.709-7.463V489.029z M505.422,490.646h13.683
			l1.016,1.525h-11.066l-0.235,1.117c-0.01,0.088-1.685,7.615-12.233,13.619c-0.799-0.498-2.07-1.213-4.094-2.324
			C496.425,502.447,503.756,497.619,505.422,490.646z M511.256,494.994h12.204c1.376,1.289,2.937,2.541,4.678,3.68v0.207
			l-0.01,0.951h1.902c1.09,0.611,2.238,1.176,3.462,1.684c-0.96,0.621-1.817,1.373-2.551,2.25c-0.065-0.012-0.141-0.012-0.207-0.012
			c-3.444,0-6.247,2.805-6.247,6.25c0,2.879,1.966,5.328,4.629,6.033c0.178,0.412,0.386,0.816,0.611,1.203h-1.995
			c-0.094-0.01-0.272-0.018-0.498-0.018c-1.948,0-4.028,0.986-4.028,3.781c0,3.293,1.29,3.783,2.052,3.783
			c0.104,0,0.198-0.008,0.272-0.02h2.673c-1.721,0.707-3.274,1.732-4.592,3.012c-7.594-7.273-15.875-13.615-24.711-18.971
			C507.492,503.633,510.39,497.488,511.256,494.994z M528.374,513.674c-1.206-0.771-2.005-2.135-2.005-3.67
			c0-1.994,1.346-3.68,3.171-4.197c-0.884,1.656-1.393,3.547-1.393,5.553C528.147,512.148,528.223,512.93,528.374,513.674z
			 M524.957,529.088c2.296-2.184,5.392-3.529,8.799-3.529c3.68,0,7.002,1.572,9.325,4.074c0.48,0.52,0.913,1.064,1.299,1.656v0.133
			h0.085c0.226,0.33,0.423,0.678,0.602,1.035c0.913,1.75,1.431,3.736,1.431,5.844c0,7.029-5.722,12.74-12.741,12.74
			c-7.029,0-12.751-5.711-12.751-12.74c0-2.605,0.79-5.025,2.137-7.049C523.668,530.461,524.278,529.736,524.957,529.088z
			 M567.417,310.434v17.71h-8.095l0.058-17.71H567.417z M559.39,308.551l0.113-34.912h1.467c0.17,0.066,0.349,0.113,0.528,0.17
			v34.742H559.39z M579.292,259.006c2.852,0,5.261,4.348,5.261,9.496c0,5.146-2.409,9.494-5.261,9.494
			c-1.872,0-3.67-1.957-4.592-4.939c0.244-0.123,0.479-0.246,0.705-0.367c0.151-0.086,0.301-0.17,0.443-0.264
			c0.846-0.537,1.505-1.148,1.955-1.816c0.012-0.02,0.021-0.028,0.029-0.047c0.047-0.085,0.104-0.17,0.15-0.246
			c0.047-0.094,0.094-0.188,0.142-0.281c0.038-0.075,0.065-0.15,0.095-0.227c0.047-0.103,0.074-0.207,0.112-0.311
			c0-0.018,0.009-0.027,0.009-0.046c0.029-0.095,0.048-0.188,0.067-0.283c0.046-0.216,0.064-0.442,0.064-0.667
			c0-0.227-0.019-0.452-0.064-0.669c-0.02-0.095-0.038-0.188-0.067-0.282c0-0.02-0.009-0.028-0.009-0.047
			c-0.038-0.104-0.065-0.207-0.112-0.311c-0.029-0.076-0.057-0.15-0.095-0.227c-0.048-0.094-0.095-0.188-0.142-0.281
			c-0.047-0.076-0.104-0.16-0.15-0.244c-0.009-0.02-0.018-0.029-0.029-0.048c-0.45-0.668-1.109-1.28-1.955-1.817
			c-0.143-0.094-0.292-0.178-0.443-0.262c-0.226-0.123-0.461-0.246-0.705-0.367C575.622,260.964,577.42,259.006,579.292,259.006z
			 M567.98,265.923v-1.581c1.919,0.084,3.756,0.443,5.251,1.025c2.108,0.818,3.359,1.986,3.359,3.135
			c0,1.147-1.251,2.314-3.359,3.133c-1.722,0.678-3.904,1.045-6.136,1.045c-1.298,0-2.559-0.123-3.716-0.357v-0.01
			C566.052,271.409,567.98,268.887,567.98,265.923z M280.43,265.923v-75.319l-0.008-0.123c-0.357-4.141-0.537-8.318-0.537-12.412
			c0-78.65,63.98-142.631,142.631-142.631c75.245,0,137.786,58.785,142.36,133.823l0.009,0.188l0.066,0.178
			c0.141,0.404,0.207,0.828,0.207,1.242v95.054c0,2.155-1.76,3.914-3.925,3.914h-13.005c-0.715-7.405-6.974-13.212-14.558-13.212
			c-8.074,0-14.633,6.56-14.633,14.624c0,3.369,1.139,6.465,3.059,8.931c-26.537,25.906-62.137,40.529-99.581,40.529
			c-16.553,0-32.748-2.86-47.963-8.309l0.629-0.075l-5.729-1.845l-0.012-0.01c-5.561-2.211-10.971-4.799-16.213-7.717
			c-0.084-0.046-0.17-0.094-0.256-0.149c-13.014-7.849-25.312-18.257-28.529-21.051c2.633-2.645,4.262-6.276,4.262-10.305
			c0-8.064-6.559-14.624-14.625-14.624c-7.584,0-13.852,5.807-14.566,13.212h-15.16C282.189,269.837,280.43,268.078,280.43,265.923z
			 M300.615,276.98v252.428h-2.672V274.496h1.873C300.004,275.352,300.277,276.18,300.615,276.98z M293.453,487.758v-0.217h-0.018
			v-9.918c1.271,0.02,2.465,0.037,3.566,0.047v10.098L293.453,487.758z M297.002,490.6v39.033h-3.566v-39.041L297.002,490.6z
			 M293.436,474.801V274.496h3.566v200.352C295.9,474.838,294.707,474.818,293.436,474.801z M234.207,435.107
			c0.641-9.254,1.252-18.508,1.863-27.758c1.223-18.396,2.492-37.415,3.926-56.113c1.523-19.837,5.898-35.138,14.18-49.611
			c7.697-13.428,16.684-22.358,26.725-26.546l9.713-0.508v200.19c-19.367-0.281-51.561-0.732-55.672-0.732
			c-1.355,0-2.504,0.188-3.453,0.574L234.207,435.107z M231.299,479.223c-0.01-0.027-0.15-0.801,0.34-1.393
			c0.525-0.639,1.666-0.979,3.303-0.979c4.092,0,36.322,0.453,55.672,0.734v9.908c-5.957-0.094-29.098-0.461-45.143-0.461
			c-5.053,0-9.004,0.039-11.734,0.104c-1.262,0.027-2.277,0.057-3.086,0.113l0.678-7.604l0.01-0.225L231.299,479.223z
			 M275.594,588.26c-9.607-8.121-46.967-43.297-45.16-97.914l60.17,0.227l-0.066,8.121h-47.775c-0.133-0.01-3.115-0.086-5.449,2.342
			c-2.043,2.119-2.916,5.383-2.598,9.703c0.029,0.404,3.352,40.219,40.918,74.078C275.613,586.143,275.604,587.309,275.594,588.26z
			 M276.525,530.217c-1.195,1.385-1.619,3.332-1.271,5.807c0.66,4.564,0.537,30.338,0.406,44.98
			c-28.975-27.148-37.359-59.926-38.131-70.473c-0.254-3.463,0.348-5.984,1.789-7.51c1.438-1.525,3.293-1.516,3.387-1.506h47.814
			l-0.209,27.188l-8.836-0.406C281.475,528.297,278.426,528.025,276.525,530.217z M335.5,753.965c1.73,1.289,3.482,2.531,5.26,3.736
			c0.02,0.01,0.037,0.018,0.055,0.037c0.068,0.057,0.143,0.104,0.209,0.16c-6.559,6.832-6.756,7.709-6.842,8.102
			c-0.16,0.67-0.395,2.617-0.555,3.953h-11.17C327.123,766.566,334.221,760.479,335.5,753.965z M343.441,759.471
			c6.137,3.951,12.592,7.461,19.311,10.482h-26.283c0.15-1.289,0.33-2.654,0.443-3.219
			C337.428,765.889,340.516,762.5,343.441,759.471z M370.373,785.791l-51.455,0.01l-3.961-0.121v-8.979
			c0-1.818,1.242-3.352,2.926-3.783l18.256-0.047l0.01-0.096h30.301c2.166,0,3.924,1.76,3.924,3.926V785.791z M373.197,779.617
			v-2.916c0-0.979-0.217-1.91-0.602-2.758c1.26,0.461,2.521,0.902,3.801,1.326C375.191,776.408,374.109,778.01,373.197,779.617z
			 M473.539,776.701v0.225c-0.96-0.922-2.052-1.721-3.038-2.361c1.373-0.48,2.747-0.979,4.102-1.496
			C473.925,774.121,473.539,775.363,473.539,776.701z M526.152,772.918c1.685,0.432,2.917,1.965,2.917,3.783v9.09l-48.746,0.01
			l-3.961-0.121v-8.979c0-2.166,1.76-3.926,3.924-3.926h44.868C525.503,772.775,525.832,772.824,526.152,772.918z M482.084,769.953
			c6.596-2.965,12.938-6.398,18.98-10.266c2.851,2.973,5.816,6.219,6.324,7.047c0.104,0.564,0.282,1.93,0.441,3.219H482.084z
			 M521.842,769.953h-11.17c-0.16-1.336-0.405-3.283-0.555-3.953c-0.085-0.393-0.283-1.25-6.654-7.895
			c1.826-1.223,3.633-2.484,5.402-3.791C510.334,760.693,517.25,766.623,521.842,769.953z M565.844,536.371v25.135
			c0,0.256-0.026,0.518-0.073,0.771l-0.029,0.143v68.797c0,0.189-0.02,0.396-0.057,0.631l-0.019,0.133v0.131
			c0.047,1.686,0.075,3.096,0.075,4.432c0,45.961-21.747,86.943-55.492,113.188c-3.594,2.805-7.341,5.439-11.199,7.877
			c-22.18,14.096-48.472,22.264-76.638,22.264c-29.576,0-57.082-9.006-79.93-24.418c-0.02-0.012-0.029-0.02-0.037-0.029
			c-5.76-4.469-7.18-5.43-7.783-5.637c-33.793-26.236-55.568-67.246-55.568-113.244c0-1.232,0.02-2.455,0.047-3.68l0.01-0.234
			l-0.074-0.227c-0.123-0.385-0.189-0.789-0.189-1.186v-82.518c0-0.406,0.066-0.801,0.189-1.188l0.064-0.195v-10.945
			c0-2.164,1.75-3.914,3.916-3.914h17.766c-1.467,2.268-2.316,4.967-2.316,7.875c0,8.066,6.57,14.625,14.635,14.625
			s14.623-6.559,14.623-14.625c0-4.148-1.74-7.902-4.535-10.566c26.518-25.342,61.609-39.25,99.184-39.25
			c26.114,0,51.024,6.719,72.695,19.318c0.33,0.189,0.649,0.377,0.969,0.564c9.213,5.459,17.834,11.99,25.691,19.527
			c-1.666,2.371-2.645,5.26-2.645,8.375c0,8.064,6.559,14.623,14.633,14.623c8.064,0,14.623-6.559,14.623-14.623
			c0-2.08-0.433-4.057-1.214-5.844h14.756C564.085,532.457,565.844,534.207,565.844,536.371z M551.673,529.633v-4.846h3.999v4.846
			H551.673z M557.554,529.633v-4.846h3.426v4.846H557.554z M559.437,519.123c2.277,0,2.878,0.525,3.011,0.686
			c0.094,0.113,0.085,0.189,0.094,0.189l-0.046,0.15v2.738h-14.352v-3.143c0.207-0.199,0.405-0.404,0.594-0.621H559.437z
			 M549.791,511.359c0,2.014-0.603,3.885-1.647,5.447V505.91C549.188,507.473,549.791,509.346,549.791,511.359z M548.144,502.193
			v-0.771c4.969-0.34,9.101-1.967,12.516-4.244h2.023C556.735,501.262,550.846,502.062,548.144,502.193z M563.596,494.92
			c-0.142,0.121-0.282,0.254-0.433,0.377h-8.554v-4.902c0.104,0.158,0.216,0.309,0.348,0.459c0.292,0.367,0.649,0.678,1.035,0.941
			c0.809,0.555,1.788,0.875,2.832,0.875c1.045,0,2.023-0.32,2.833-0.875c0.386-0.264,0.743-0.574,1.035-0.941
			c0.244-0.291,0.461-0.602,0.63-0.941h0.273V494.92z M554.713,487.617c0-0.5,0.085-0.979,0.253-1.412
			c0.094-0.262,0.208-0.508,0.357-0.734c0.207-0.348,0.48-0.668,0.791-0.939c0.527-0.471,1.167-0.799,1.882-0.941h1.656
			c0.716,0.143,1.355,0.471,1.882,0.941c0.311,0.271,0.584,0.592,0.792,0.939c0.149,0.227,0.262,0.473,0.356,0.734
			c0.169,0.434,0.254,0.912,0.254,1.412c0,0.498-0.085,0.979-0.254,1.412c-0.112,0.32-0.264,0.609-0.451,0.883
			c-0.245,0.359-0.536,0.68-0.885,0.941c-0.696,0.555-1.571,0.877-2.522,0.877c-0.95,0-1.824-0.322-2.521-0.877
			c-0.349-0.262-0.64-0.582-0.884-0.941c-0.188-0.273-0.34-0.562-0.453-0.883C554.798,488.596,554.713,488.115,554.713,487.617z
			 M563.596,485.961c-0.056-0.17-0.122-0.33-0.197-0.49c-0.161-0.338-0.358-0.65-0.584-0.939c-0.273-0.359-0.593-0.678-0.96-0.941
			c-0.837-0.65-1.892-1.025-3.03-1.025s-2.192,0.375-3.03,1.025c-0.367,0.264-0.686,0.582-0.959,0.941
			c-0.086,0.104-0.16,0.205-0.226,0.309v-1.854c0,0,0-0.688,0.413-1.119c0.283-0.291,0.734-0.441,1.338-0.441h5.833
			c0.442,0.008,1.158,0.488,1.347,2.164c0.037,0.281,0.056,0.592,0.056,0.941V485.961z M565.478,494.994v-1.871
			c0.424-0.434,0.818-0.877,1.204-1.328h1.929C567.595,492.99,566.54,494.053,565.478,494.994z M565.478,489.912v-4.441h1.487v4.441
			H565.478z M565.431,483.59c-0.349-3.924-2.928-4.047-3.256-4.047c-0.009,0-0.009,0-0.009,0h-5.806
			c-1.141,0-2.053,0.338-2.701,1.025c-0.97,1.016-0.932,2.363-0.924,2.467v0.555h-4.592v-6.201h24.543
			c-0.556,1.637-1.76,4.789-3.841,8.225v-2.023H565.431z M568.846,491.512v-2.482h1.874
			C570.107,489.912,569.486,490.74,568.846,491.512z M572.469,486.205h-1.796c2.305-3.887,3.537-7.367,3.999-8.816h17.013
			c-0.611,0.902-2.042,2.07-5.316,2.07l-1.985-0.029c-1.693-0.027-3.557-0.055-5.072-0.055c-3.378,0-3.67,0.084-3.99,0.639
			l-0.066,0.141C574.417,482.395,573.485,484.398,572.469,486.205z M666.714,486.205h-92.09c0.811-1.543,1.544-3.18,2.211-4.902
			c0.367-0.02,1.083-0.047,2.476-0.047c1.506,0,3.36,0.027,5.045,0.057l2.013,0.027c5.176,0,6.87-2.588,7.406-3.951l67.218-0.01
			c0.226,0.027,5.722,0.592,5.722,7.152V486.205z M670.684,486.205h-2.088v-1.674c0-8.32-7.378-9.016-7.528-9.025H548.144v-3.953
			h110.062c0.066,0,6.136,0.283,9.768,4.303c2.005,2.209,2.908,5.184,2.692,8.854v0.057L670.684,486.205z"/>
		<path fill="#58595B" d="M536.456,486.205c-0.348-0.34-0.818-0.545-1.355-0.545c-0.526,0-0.997,0.205-1.345,0.545
			c-0.378,0.357-0.603,0.857-0.603,1.412s0.225,1.055,0.603,1.412c0.348,0.338,0.818,0.545,1.345,0.545
			c0.537,0,1.008-0.207,1.355-0.545c0.377-0.357,0.603-0.857,0.603-1.412S536.833,486.562,536.456,486.205z M535.101,488.633
			c-0.555,0-1.006-0.461-1.006-1.016c0-0.564,0.451-1.016,1.006-1.016c0.565,0,1.017,0.451,1.017,1.016
			C536.117,488.172,535.666,488.633,535.101,488.633z"/>
		<path fill="#58595B" d="M429.603,631.951c-0.065-0.197-0.133-0.404-0.217-0.592c-0.122-0.293-0.264-0.574-0.413-0.848
			c-0.151-0.273-0.321-0.527-0.52-0.781c-0.205-0.291-0.441-0.555-0.695-0.809c-0.508-0.508-1.082-0.939-1.713-1.281
			c-0.395-0.215-0.809-0.395-1.242-0.537c-0.535-0.176-1.102-0.291-1.693-0.336c-0.197-0.02-0.395-0.029-0.594-0.029
			c-0.197,0-0.395,0.01-0.592,0.029c-0.594,0.045-1.158,0.16-1.693,0.336c-0.434,0.143-0.848,0.322-1.244,0.537
			c-0.629,0.342-1.203,0.773-1.711,1.281c-0.256,0.254-0.49,0.518-0.697,0.809c-0.197,0.254-0.367,0.508-0.518,0.781
			s-0.291,0.555-0.414,0.848c-0.084,0.188-0.15,0.395-0.217,0.592c-0.217,0.697-0.328,1.43-0.328,2.203
			c0,2.041,0.828,3.895,2.174,5.24c0.17,0.17,0.338,0.33,0.525,0.48c0.16,0.131,0.33,0.254,0.5,0.377
			c0.111,0.074,0.225,0.15,0.348,0.225c0.207,0.123,0.414,0.236,0.631,0.348c0.648,0.32,1.346,0.547,2.08,0.66c0,0,0,0,0.008,0
			c0.377,0.066,0.764,0.094,1.148,0.094c0.387,0,0.773-0.027,1.148-0.094c0.01,0,0.01,0,0.01,0c0.734-0.113,1.43-0.34,2.08-0.66
			c0.215-0.111,0.424-0.225,0.631-0.348c0.121-0.074,0.234-0.15,0.348-0.225c0.17-0.123,0.338-0.246,0.498-0.377
			c0.188-0.15,0.357-0.311,0.527-0.48c1.346-1.346,2.174-3.199,2.174-5.24C429.932,633.381,429.818,632.648,429.603,631.951z
			 M428.7,636.074c-0.188,0.602-0.472,1.176-0.819,1.693c-0.236,0.348-0.5,0.668-0.791,0.961c-0.584,0.592-1.279,1.062-2.053,1.391
			c-0.188,0.086-0.395,0.16-0.592,0.217c-0.611,0.189-1.26,0.293-1.93,0.293c-0.666,0-1.316-0.104-1.93-0.293
			c-0.195-0.057-0.404-0.131-0.592-0.217c-0.771-0.328-1.469-0.799-2.053-1.391c-0.289-0.293-0.555-0.613-0.789-0.961
			c-0.348-0.518-0.629-1.092-0.818-1.693c-0.188-0.604-0.293-1.252-0.293-1.92c0-1.779,0.727-3.398,1.9-4.564
			c0.584-0.582,1.281-1.062,2.053-1.393s1.629-0.508,2.521-0.508c0.895,0,1.752,0.178,2.521,0.508
			c0.773,0.33,1.469,0.811,2.053,1.393c1.176,1.166,1.901,2.785,1.901,4.564C428.991,634.822,428.888,635.471,428.7,636.074z"/>
		<path fill="#58595B" d="M430.747,604.186l-0.125,0.455c13.243,3.629,22.492,15.764,22.492,29.512
			c0,16.871-13.725,30.6-30.597,30.6c-16.871,0-30.598-13.729-30.598-30.6h-0.471c0,17.131,13.938,31.068,31.068,31.068
			s31.067-13.938,31.067-31.068C453.585,620.193,444.193,607.871,430.747,604.186z"/>
		<path fill="#58595B" d="M422.518,662.818c15.806,0,28.664-12.859,28.664-28.666c0-9.975-5.063-19.08-13.542-24.355l-0.249,0.4
			c8.341,5.189,13.319,14.145,13.319,23.955c0,15.547-12.646,28.195-28.192,28.195c-14.521,0-26.861-11.318-28.092-25.771
			l-0.469,0.041C395.209,651.309,407.754,662.818,422.518,662.818z"/>
		<path fill="#58595B" d="M422.518,659.662c14.064,0,25.508-11.443,25.508-25.51c0-7.512-3.29-14.609-9.028-19.471l-0.305,0.359
			c5.633,4.771,8.862,11.738,8.862,19.111c0,13.805-11.231,25.039-25.037,25.039c-8.332,0-16.092-4.127-20.762-11.039l-0.391,0.262
			C406.123,655.457,414.029,659.662,422.518,659.662z"/>
		<path fill="#58595B" d="M422.518,657.295c12.76,0,23.142-10.381,23.142-23.143c0-4.027-1.051-7.994-3.039-11.471l-0.407,0.234
			c1.946,3.404,2.976,7.291,2.976,11.236c0,12.502-10.17,22.672-22.671,22.672c-8.922,0-17.047-5.26-20.697-13.404l-0.43,0.193
			C405.117,651.926,413.41,657.295,422.518,657.295z"/>
		<path fill="#58595B" d="M422.516,615.643c-10.199,0-18.51,8.301-18.51,18.512c0,10.199,8.311,18.51,18.51,18.51
			c10.21,0,18.512-8.311,18.512-18.51C441.027,623.943,432.726,615.643,422.516,615.643z M422.516,650.781
			c-9.164,0-16.627-7.461-16.627-16.627s7.463-16.629,16.627-16.629c9.167,0,16.629,7.463,16.629,16.629
			S431.683,650.781,422.516,650.781z"/>
		<path fill="#58595B" d="M422.516,599.967c-18.848,0-34.188,15.338-34.188,34.188c0,18.848,15.34,34.186,34.188,34.186
			c18.86,0,34.188-15.338,34.188-34.186C456.704,615.305,441.376,599.967,422.516,599.967z M422.516,666.459
			c-17.812,0-32.305-14.492-32.305-32.305c0-17.814,14.492-32.307,32.305-32.307c17.815,0,32.307,14.492,32.307,32.307
			C454.822,651.967,440.331,666.459,422.516,666.459z"/>
		<path fill="#58595B" d="M422.516,637.09c1.318,0,2.391-1.072,2.391-2.391c0-1.316-1.072-2.391-2.391-2.391
			c-1.316,0-2.389,1.074-2.389,2.391C420.127,636.018,421.199,637.09,422.516,637.09z"/>
		<path fill="#58595B" d="M427.758,173.024c-0.414-0.423-0.885-0.79-1.402-1.101c-0.104-0.066-0.207-0.123-0.311-0.179
			c-0.424-0.235-0.865-0.424-1.326-0.565c-0.17-0.057-0.35-0.103-0.527-0.141c-0.133-0.038-0.271-0.066-0.414-0.084
			c-0.414-0.076-0.828-0.113-1.262-0.113c-0.432,0-0.846,0.037-1.26,0.113c-0.143,0.018-0.281,0.046-0.414,0.084
			c-0.178,0.038-0.359,0.084-0.527,0.141c-0.461,0.142-0.904,0.33-1.328,0.565c-0.104,0.056-0.205,0.112-0.309,0.179
			c-0.518,0.311-0.988,0.678-1.402,1.101c-1.346,1.347-2.174,3.2-2.174,5.232c0,2.042,0.828,3.905,2.174,5.241
			c0.17,0.17,0.338,0.329,0.525,0.48c0.48,0.395,1.018,0.733,1.592,1.006c0.121,0.057,0.234,0.104,0.357,0.16
			c0.855,0.349,1.787,0.537,2.766,0.537s1.912-0.188,2.768-0.537c0.121-0.057,0.236-0.104,0.357-0.16
			c0.574-0.272,1.109-0.611,1.59-1.006c0.188-0.151,0.357-0.311,0.527-0.48c1.346-1.336,2.174-3.199,2.174-5.241
			C429.932,176.225,429.104,174.371,427.758,173.024z M427.881,181.869c-0.236,0.35-0.5,0.669-0.791,0.961
			c-0.15,0.15-0.301,0.291-0.461,0.424c-0.414,0.348-0.875,0.64-1.373,0.875c-0.105,0.047-0.207,0.094-0.32,0.141
			c-0.188,0.076-0.377,0.141-0.576,0.198c-0.582,0.169-1.203,0.263-1.844,0.263c-0.639,0-1.26-0.094-1.844-0.263
			c-0.197-0.058-0.385-0.122-0.574-0.198c-0.113-0.047-0.215-0.094-0.32-0.141c-0.498-0.235-0.959-0.527-1.373-0.875
			c-0.16-0.133-0.311-0.273-0.463-0.424c-0.289-0.292-0.555-0.611-0.789-0.961c-0.348-0.516-0.629-1.09-0.818-1.693
			c-0.188-0.602-0.293-1.251-0.293-1.919c0-1.778,0.727-3.397,1.9-4.563c0.584-0.584,1.281-1.064,2.053-1.393
			c0.771-0.33,1.629-0.51,2.521-0.51c0.895,0,1.752,0.18,2.521,0.51c0.773,0.328,1.469,0.809,2.053,1.393
			c1.176,1.166,1.901,2.785,1.901,4.563c0,0.668-0.104,1.317-0.291,1.919C428.512,180.779,428.229,181.354,427.881,181.869z"/>
		<path fill="#58595B" d="M422.518,209.327c17.131,0,31.067-13.938,31.067-31.069c0-13.959-9.392-26.281-22.838-29.967l-0.125,0.454
			c13.243,3.63,22.492,15.765,22.492,29.513c0,16.871-13.725,30.598-30.597,30.598c-16.871,0-30.598-13.727-30.598-30.598h-0.471
			C391.449,195.39,405.387,209.327,422.518,209.327z"/>
		<path fill="#58595B" d="M422.518,206.922c15.806,0,28.664-12.858,28.664-28.664c0-9.976-5.063-19.08-13.542-24.354l-0.249,0.399
			c8.341,5.189,13.319,14.143,13.319,23.955c0,15.547-12.646,28.194-28.192,28.194c-14.521,0-26.861-11.319-28.092-25.771
			l-0.469,0.041C395.209,195.414,407.754,206.922,422.518,206.922z"/>
		<path fill="#58595B" d="M422.518,203.767c14.064,0,25.508-11.442,25.508-25.509c0-7.513-3.29-14.609-9.028-19.471l-0.305,0.357
			c5.633,4.773,8.862,11.74,8.862,19.113c0,13.806-11.231,25.039-25.037,25.039c-8.332,0-16.092-4.128-20.762-11.04l-0.391,0.263
			C406.123,199.562,414.029,203.767,422.518,203.767z"/>
		<path fill="#58595B" d="M422.518,201.4c12.76,0,23.142-10.381,23.142-23.143c0-4.027-1.051-7.995-3.039-11.471l-0.407,0.233
			c1.946,3.405,2.976,7.292,2.976,11.237c0,12.502-10.17,22.672-22.671,22.672c-8.922,0-17.047-5.26-20.697-13.404l-0.43,0.193
			C405.117,196.029,413.41,201.4,422.518,201.4z"/>
		<path fill="#58595B" d="M422.516,159.746c-10.199,0-18.51,8.311-18.51,18.511c0,10.21,8.311,18.509,18.51,18.509
			c10.21,0,18.512-8.299,18.512-18.509C441.027,168.057,432.726,159.746,422.516,159.746z M422.516,194.885
			c-9.164,0-16.627-7.463-16.627-16.628c0-9.166,7.463-16.628,16.627-16.628c9.167,0,16.629,7.462,16.629,16.628
			C439.145,187.422,431.683,194.885,422.516,194.885z"/>
		<path fill="#58595B" d="M422.516,144.069c-18.848,0-34.188,15.339-34.188,34.188s15.34,34.188,34.188,34.188
			c18.86,0,34.188-15.34,34.188-34.188S441.376,144.069,422.516,144.069z M422.516,210.562c-17.812,0-32.305-14.492-32.305-32.306
			s14.492-32.306,32.305-32.306c17.815,0,32.307,14.492,32.307,32.306S440.331,210.562,422.516,210.562z"/>
		<path fill="#58595B" d="M422.516,181.192c1.318,0,2.391-1.071,2.391-2.39c0-1.317-1.072-2.391-2.391-2.391
			c-1.316,0-2.389,1.073-2.389,2.391C420.127,180.121,421.199,181.192,422.516,181.192z"/>
		<path fill="#58595B" d="M314.08,268.859c-0.789,0-1.494,0.387-1.928,0.979c-0.301,0.396-0.471,0.885-0.471,1.412
			c0,1.326,1.074,2.398,2.398,2.398c0.727,0,1.385-0.328,1.818-0.846c0.357-0.414,0.572-0.95,0.572-1.553
			C316.471,269.933,315.398,268.859,314.08,268.859z"/>
		<path fill="#58595B" d="M533.671,268.859c-0.79,0-1.496,0.387-1.919,0.979c-0.302,0.396-0.48,0.885-0.48,1.412
			c0,0.441,0.122,0.855,0.339,1.213c0.149,0.273,0.367,0.519,0.63,0.707c0.057,0.047,0.123,0.094,0.197,0.141
			c0.359,0.217,0.781,0.338,1.233,0.338c0.791,0,1.496-0.385,1.93-0.986v-0.001h0.056v-0.075l0,0c0,0,0,0,0-0.01
			c0.17-0.244,0.292-0.517,0.358-0.818c0.027-0.17,0.047-0.339,0.047-0.508c0-0.527-0.169-1.017-0.471-1.412
			C535.158,269.246,534.462,268.859,533.671,268.859z"/>
		<path fill="#58595B" d="M533.756,540.701c1.317,0,2.39-1.072,2.39-2.398c0-1.318-1.072-2.393-2.39-2.393
			c-1.327,0-2.4,1.074-2.4,2.393C531.355,539.629,532.429,540.701,533.756,540.701z"/>
		<path fill="#58595B" d="M313.141,542.732c1.316,0,2.391-1.072,2.391-2.398c0-1.318-1.074-2.391-2.391-2.391
			c-1.326,0-2.4,1.072-2.4,2.391C310.74,541.66,311.814,542.732,313.141,542.732z"/>
		<path fill="#58595B" d="M533.868,365.107c-1.176,0-2.116,0.949-2.116,2.117c0,0.64,0.281,1.213,0.733,1.6
			c0.367,0.32,0.847,0.518,1.383,0.518c0.527,0,1.007-0.197,1.384-0.518c0.452-0.387,0.733-0.96,0.733-1.6
			C535.985,366.057,535.036,365.107,533.868,365.107z M533.868,368.4c-0.649,0-1.176-0.527-1.176-1.176
			c0-0.649,0.526-1.177,1.176-1.177s1.177,0.527,1.177,1.177C535.045,367.873,534.518,368.4,533.868,368.4z"/>
		<path fill="#58595B" d="M558.626,365.107c-1.165,0-2.117,0.949-2.117,2.117c0,0.64,0.284,1.213,0.735,1.6
			c0.376,0.32,0.856,0.518,1.382,0.518c0.529,0,1.008-0.197,1.385-0.518c0.451-0.387,0.733-0.96,0.733-1.6
			C560.744,366.057,559.793,365.107,558.626,365.107z M558.626,368.4c-0.647,0-1.176-0.527-1.176-1.176
			c0-0.649,0.528-1.177,1.176-1.177c0.65,0,1.178,0.527,1.178,1.177C559.804,367.873,559.276,368.4,558.626,368.4z"/>
		<path fill="#58595B" d="M560.181,486.205c-0.358-0.34-0.829-0.545-1.356-0.545c-0.526,0-0.997,0.205-1.354,0.545
			c-0.377,0.357-0.603,0.857-0.603,1.412s0.226,1.055,0.603,1.412c0.357,0.338,0.828,0.545,1.354,0.545
			c0.527,0,0.998-0.207,1.356-0.545c0.366-0.357,0.601-0.857,0.601-1.412S560.547,486.562,560.181,486.205z M558.824,488.633
			c-0.564,0-1.017-0.461-1.017-1.016c0-0.564,0.452-1.016,1.017-1.016c0.556,0,1.016,0.451,1.016,1.016
			C559.84,488.172,559.38,488.633,558.824,488.633z"/>
		<path fill="#58595B" d="M477.802,481.125c-0.226-1.678-1.571-2.6-1.628-2.637l-0.122-0.074H459.47l-0.122,0.074
			c-1.608,1.092-2.39,2.27-2.323,3.492c0.093,1.918,2.268,3.133,2.361,3.182l0.104,0.055h16.638l0.141-0.16
			C477.453,483.711,477.962,482.395,477.802,481.125z M475.694,484.275h-15.951c-0.376-0.234-1.721-1.148-1.787-2.342
			c-0.037-0.848,0.564-1.713,1.807-2.58h15.988c0.272,0.217,0.987,0.875,1.119,1.893
			C476.993,482.188,476.597,483.203,475.694,484.275z"/>
	</g>
	<g id="dashes">
		<g>
			<path fill="#58595B" d="M424.348,303.061c-0.521,0-0.941-0.421-0.941-0.941c0-0.519,0.42-0.94,0.939-0.94
				c3.113-0.002,6.253-0.12,9.333-0.349c0.537-0.039,0.97,0.35,1.009,0.869c0.038,0.518-0.352,0.969-0.869,1.008
				C430.692,302.939,427.506,303.059,424.348,303.061L424.348,303.061z M414.949,302.719c-0.023,0-0.045,0-0.068-0.002
				c-3.143-0.23-6.312-0.582-9.42-1.044c-0.512-0.077-0.867-0.556-0.791-1.069c0.078-0.514,0.561-0.864,1.068-0.793
				c3.062,0.457,6.184,0.803,9.279,1.029c0.52,0.038,0.908,0.489,0.869,1.008C415.85,302.342,415.438,302.719,414.949,302.719z
				 M443.096,301.662c-0.459,0-0.86-0.335-0.931-0.801c-0.076-0.515,0.278-0.994,0.792-1.07c3.067-0.461,6.153-1.043,9.174-1.73
				c0.499-0.115,1.011,0.202,1.125,0.709c0.117,0.507-0.201,1.012-0.708,1.127c-3.065,0.697-6.198,1.288-9.312,1.756
				C443.188,301.659,443.142,301.662,443.096,301.662z M396.355,299.949c-0.068,0-0.139-0.006-0.209-0.022
				c-3.066-0.694-6.148-1.517-9.158-2.44c-0.496-0.153-0.775-0.68-0.623-1.176c0.154-0.496,0.68-0.773,1.176-0.624
				c2.965,0.911,6,1.72,9.021,2.405c0.508,0.115,0.826,0.619,0.711,1.125C397.174,299.654,396.785,299.949,396.355,299.949z
				 M461.423,297.487c-0.401,0-0.774-0.261-0.899-0.664c-0.153-0.497,0.127-1.024,0.623-1.177c2.958-0.912,5.923-1.951,8.81-3.086
				c0.482-0.19,1.031,0.047,1.221,0.531c0.19,0.483-0.047,1.029-0.531,1.22c-2.932,1.153-5.941,2.207-8.944,3.134
				C461.607,297.474,461.516,297.487,461.423,297.487z M378.375,294.424c-0.115,0-0.23-0.021-0.344-0.066
				c-2.934-1.15-5.857-2.426-8.695-3.793c-0.469-0.225-0.664-0.787-0.439-1.256c0.229-0.469,0.791-0.664,1.258-0.439
				c2.793,1.347,5.676,2.604,8.564,3.736c0.484,0.189,0.723,0.736,0.533,1.22C379.105,294.196,378.75,294.424,378.375,294.424z
				 M478.914,290.611c-0.351,0-0.687-0.195-0.848-0.531c-0.227-0.469-0.03-1.031,0.438-1.258c2.785-1.343,5.56-2.812,8.244-4.367
				c0.448-0.262,1.024-0.107,1.286,0.343c0.261,0.45,0.106,1.026-0.343,1.286c-2.726,1.578-5.542,3.069-8.369,4.434
				C479.191,290.582,479.052,290.611,478.914,290.611z M361.422,286.258c-0.158,0-0.32-0.041-0.469-0.127
				c-2.723-1.572-5.424-3.271-8.027-5.047c-0.43-0.292-0.541-0.877-0.248-1.307s0.877-0.541,1.309-0.248
				c2.564,1.75,5.227,3.422,7.908,4.973c0.449,0.26,0.605,0.836,0.346,1.286C362.064,286.09,361.748,286.258,361.422,286.258z
				 M495.176,281.199c-0.3,0-0.595-0.143-0.777-0.41c-0.294-0.429-0.184-1.015,0.246-1.308c2.558-1.749,5.083-3.615,7.505-5.55
				c0.408-0.324,0.999-0.258,1.323,0.148s0.259,0.998-0.147,1.322c-2.458,1.963-5.022,3.858-7.619,5.633
				C495.544,281.146,495.358,281.199,495.176,281.199z M345.885,275.658c-0.205,0-0.412-0.068-0.586-0.205
				c-2.461-1.964-4.879-4.044-7.186-6.184c-0.381-0.354-0.402-0.949-0.051-1.33c0.354-0.381,0.949-0.403,1.33-0.05
				c2.273,2.108,4.656,4.157,7.08,6.091c0.406,0.324,0.473,0.916,0.148,1.322C346.436,275.536,346.162,275.658,345.885,275.658z
				 M509.864,269.469c-0.253,0-0.504-0.102-0.69-0.301c-0.353-0.381-0.33-0.977,0.05-1.33c2.272-2.109,4.495-4.33,6.603-6.604
				c0.354-0.381,0.948-0.402,1.331-0.049c0.381,0.354,0.402,0.949,0.05,1.33c-2.143,2.307-4.397,4.561-6.702,6.702
				C510.323,269.386,510.095,269.469,509.864,269.469z M332.098,262.873c-0.252,0-0.504-0.102-0.689-0.301
				c-2.143-2.305-4.225-4.719-6.189-7.176c-0.324-0.406-0.258-0.998,0.148-1.322c0.406-0.326,0.996-0.26,1.322,0.146
				c1.936,2.42,3.988,4.799,6.098,7.07c0.354,0.381,0.332,0.977-0.049,1.33C332.557,262.79,332.328,262.873,332.098,262.873z
				 M522.655,255.686c-0.206,0-0.413-0.066-0.587-0.205c-0.405-0.324-0.472-0.916-0.147-1.322c1.937-2.424,3.805-4.951,5.553-7.51
				c0.294-0.43,0.879-0.541,1.309-0.247c0.43,0.293,0.539,0.878,0.246,1.308c-1.775,2.599-3.671,5.163-5.638,7.624
				C523.206,255.564,522.933,255.686,522.655,255.686z M320.359,248.19c-0.301,0-0.596-0.144-0.777-0.409
				c-1.777-2.598-3.477-5.293-5.053-8.014c-0.262-0.449-0.109-1.025,0.34-1.285c0.453-0.26,1.027-0.107,1.289,0.342
				c1.553,2.68,3.227,5.336,4.977,7.895c0.295,0.428,0.184,1.014-0.244,1.307C320.729,248.138,320.543,248.19,320.359,248.19z
				 M533.264,240.154c-0.159,0-0.321-0.04-0.471-0.127c-0.449-0.26-0.604-0.836-0.342-1.285c1.555-2.688,3.025-5.465,4.371-8.257
				c0.226-0.467,0.788-0.663,1.257-0.438c0.468,0.227,0.665,0.789,0.438,1.256c-1.367,2.834-2.86,5.654-4.439,8.383
				C533.904,239.986,533.589,240.154,533.264,240.154z M310.938,231.932c-0.35,0-0.686-0.195-0.848-0.531
				c-1.367-2.83-2.646-5.749-3.799-8.674c-0.189-0.482,0.049-1.029,0.533-1.221c0.48-0.189,1.029,0.047,1.219,0.531
				c1.135,2.881,2.395,5.756,3.742,8.545c0.225,0.467,0.029,1.029-0.438,1.256C311.215,231.902,311.074,231.932,310.938,231.932z
				 M541.438,223.208c-0.114,0-0.229-0.021-0.344-0.065c-0.483-0.189-0.722-0.736-0.531-1.221c1.133-2.886,2.17-5.854,3.085-8.822
				c0.153-0.497,0.681-0.776,1.176-0.623c0.498,0.154,0.775,0.681,0.623,1.178c-0.928,3.013-1.981,6.026-3.132,8.955
				C542.17,222.98,541.814,223.208,541.438,223.208z M304.053,214.448c-0.402,0-0.771-0.26-0.898-0.663
				c-0.928-3.006-1.756-6.085-2.457-9.154c-0.115-0.506,0.203-1.011,0.709-1.127c0.5-0.116,1.01,0.202,1.127,0.709
				c0.689,3.022,1.504,6.056,2.42,9.016c0.152,0.497-0.125,1.023-0.623,1.178C304.238,214.434,304.145,214.448,304.053,214.448z
				 M546.976,205.23c-0.068,0-0.14-0.008-0.209-0.023c-0.507-0.115-0.824-0.619-0.71-1.127c0.688-3.02,1.268-6.106,1.726-9.174
				c0.076-0.514,0.56-0.867,1.069-0.792c0.515,0.077,0.869,0.556,0.792,1.07c-0.465,3.113-1.054,6.247-1.75,9.313
				C547.794,204.935,547.405,205.23,546.976,205.23z M299.867,196.121c-0.459,0-0.859-0.334-0.932-0.801
				c-0.467-3.112-0.822-6.281-1.057-9.416c-0.039-0.52,0.35-0.971,0.869-1.01c0.514-0.03,0.969,0.351,1.008,0.869
				c0.23,3.09,0.58,6.211,1.043,9.276c0.076,0.515-0.277,0.993-0.791,1.07C299.959,196.117,299.912,196.121,299.867,196.121z
				 M549.755,186.639c-0.022,0-0.047-0.002-0.071-0.003c-0.518-0.038-0.906-0.489-0.868-1.008c0.229-3.082,0.345-6.222,0.345-9.329
				l-0.001-0.268c0-0.52,0.42-0.941,0.94-0.941s0.94,0.422,0.94,0.941l0.001,0.258c0,3.164-0.117,6.35-0.349,9.477
				C550.655,186.262,550.243,186.639,549.755,186.639z M298.461,177.374c-0.52,0-0.941-0.421-0.941-0.94v-0.135
				c0-3.113,0.113-6.254,0.338-9.334c0.039-0.518,0.477-0.904,1.008-0.869c0.52,0.037,0.908,0.488,0.869,1.006
				c-0.221,3.035-0.332,6.13-0.332,9.197v0.135C299.402,176.953,298.98,177.374,298.461,177.374z M549.732,167.572
				c-0.486,0-0.899-0.377-0.937-0.87c-0.234-3.09-0.59-6.211-1.054-9.275c-0.078-0.514,0.275-0.993,0.79-1.071
				c0.515-0.079,0.992,0.275,1.07,0.789c0.472,3.111,0.831,6.279,1.069,9.415c0.039,0.519-0.35,0.971-0.868,1.009
				C549.781,167.57,549.757,167.572,549.732,167.572z M299.828,158.627c-0.045,0-0.092-0.004-0.137-0.01
				c-0.516-0.076-0.871-0.556-0.795-1.07c0.463-3.118,1.049-6.252,1.74-9.314c0.117-0.508,0.617-0.826,1.127-0.711
				c0.506,0.115,0.824,0.619,0.711,1.125c-0.684,3.018-1.26,6.104-1.717,9.177C300.689,158.291,300.287,158.627,299.828,158.627z
				 M546.915,148.986c-0.43,0-0.815-0.295-0.916-0.73c-0.693-3.025-1.512-6.059-2.43-9.014c-0.153-0.496,0.124-1.023,0.62-1.178
				c0.504-0.154,1.024,0.125,1.178,0.619c0.932,3.002,1.762,6.08,2.467,9.152c0.116,0.506-0.201,1.01-0.708,1.127
				C547.056,148.979,546.985,148.986,546.915,148.986z M303.973,140.29c-0.09,0-0.184-0.013-0.275-0.042
				c-0.498-0.152-0.775-0.678-0.623-1.176c0.924-3.012,1.975-6.027,3.121-8.959c0.191-0.484,0.736-0.725,1.221-0.533
				c0.484,0.189,0.723,0.734,0.533,1.219c-1.131,2.889-2.166,5.859-3.076,8.826C304.75,140.029,304.377,140.29,303.973,140.29z
				 M541.345,131.032c-0.375,0-0.729-0.226-0.875-0.596c-1.14-2.884-2.401-5.757-3.75-8.54c-0.227-0.468-0.033-1.031,0.435-1.258
				c0.469-0.225,1.032-0.03,1.258,0.437c1.37,2.826,2.651,5.743,3.807,8.669c0.192,0.484-0.045,1.03-0.528,1.223
				C541.577,131.01,541.46,131.032,541.345,131.032z M310.83,122.766c-0.137,0-0.275-0.03-0.406-0.094
				c-0.469-0.225-0.664-0.787-0.439-1.256c1.365-2.84,2.855-5.662,4.43-8.386c0.26-0.452,0.834-0.604,1.285-0.345
				c0.449,0.26,0.604,0.835,0.344,1.285c-1.549,2.684-3.018,5.463-4.363,8.262C311.518,122.569,311.182,122.766,310.83,122.766z
				 M533.151,114.127c-0.324,0-0.639-0.168-0.814-0.468c-1.558-2.68-3.235-5.334-4.986-7.89c-0.293-0.428-0.185-1.014,0.244-1.307
				c0.43-0.295,1.014-0.186,1.31,0.243c1.776,2.593,3.479,5.287,5.061,8.007c0.262,0.449,0.108,1.025-0.341,1.287
				C533.476,114.086,533.313,114.127,533.151,114.127z M320.234,106.471c-0.184,0-0.367-0.053-0.529-0.162
				c-0.43-0.294-0.541-0.879-0.248-1.309c1.773-2.602,3.666-5.169,5.629-7.629c0.322-0.407,0.916-0.475,1.322-0.15
				s0.473,0.916,0.148,1.322c-1.932,2.424-3.797,4.953-5.545,7.518C320.83,106.328,320.533,106.471,320.234,106.471z
				 M522.525,98.626c-0.275,0-0.55-0.12-0.735-0.353c-1.939-2.421-3.994-4.797-6.104-7.064c-0.356-0.381-0.335-0.976,0.047-1.33
				c0.379-0.354,0.977-0.333,1.329,0.047c2.144,2.303,4.229,4.714,6.197,7.17c0.325,0.406,0.26,0.998-0.146,1.324
				C522.94,98.559,522.732,98.626,522.525,98.626z M331.953,91.762c-0.229,0-0.457-0.082-0.639-0.25
				c-0.383-0.354-0.406-0.949-0.051-1.33c2.139-2.31,4.391-4.566,6.695-6.709c0.377-0.354,0.975-0.334,1.328,0.047
				s0.334,0.977-0.047,1.33c-2.27,2.111-4.488,4.335-6.596,6.611C332.457,91.66,332.205,91.762,331.953,91.762z M509.71,84.867
				c-0.229,0-0.458-0.082-0.639-0.25c-2.28-2.109-4.665-4.156-7.088-6.083c-0.406-0.323-0.473-0.916-0.149-1.323
				c0.323-0.404,0.913-0.473,1.322-0.15c2.458,1.957,4.879,4.035,7.191,6.176c0.384,0.352,0.406,0.947,0.054,1.329
				C510.215,84.766,509.962,84.867,509.71,84.867z M345.719,78.955c-0.275,0-0.549-0.121-0.734-0.353
				c-0.324-0.405-0.26-0.998,0.146-1.323c2.457-1.967,5.018-3.865,7.613-5.641c0.43-0.293,1.016-0.184,1.309,0.244
				c0.293,0.43,0.184,1.016-0.246,1.309c-2.557,1.75-5.08,3.619-7.5,5.557C346.133,78.888,345.926,78.955,345.719,78.955z
				 M494.993,73.156c-0.182,0-0.366-0.053-0.528-0.162c-2.563-1.745-5.226-3.416-7.913-4.965c-0.45-0.26-0.605-0.836-0.345-1.285
				c0.257-0.45,0.833-0.605,1.284-0.346c2.729,1.572,5.432,3.268,8.032,5.039c0.431,0.293,0.542,0.879,0.248,1.309
				C495.59,73.013,495.294,73.156,494.993,73.156z M361.227,68.336c-0.324,0-0.641-0.168-0.814-0.469
				c-0.262-0.449-0.109-1.025,0.342-1.285c2.723-1.58,5.535-3.075,8.363-4.444c0.471-0.229,1.031-0.03,1.258,0.438
				s0.029,1.03-0.438,1.257c-2.785,1.348-5.557,2.82-8.24,4.377C361.549,68.295,361.387,68.336,361.227,68.336z M478.694,63.764
				c-0.136,0-0.275-0.03-0.405-0.094c-2.795-1.342-5.678-2.596-8.571-3.727c-0.483-0.189-0.723-0.734-0.534-1.219
				c0.189-0.484,0.734-0.724,1.22-0.533c2.937,1.146,5.863,2.42,8.699,3.781c0.469,0.227,0.666,0.787,0.441,1.257
				C479.382,63.566,479.046,63.764,478.694,63.764z M378.133,60.152c-0.375,0-0.729-0.227-0.875-0.597
				c-0.191-0.483,0.047-1.03,0.529-1.22c2.924-1.154,5.932-2.211,8.941-3.144c0.502-0.155,1.025,0.124,1.178,0.62
				c0.154,0.496-0.123,1.023-0.619,1.178c-2.965,0.919-5.93,1.961-8.809,3.096C378.365,60.131,378.248,60.152,378.133,60.152z
				 M461.167,56.914c-0.091,0-0.184-0.014-0.276-0.042c-2.963-0.907-5.998-1.713-9.022-2.396c-0.507-0.114-0.825-0.617-0.71-1.125
				c0.112-0.507,0.617-0.825,1.124-0.711c3.069,0.692,6.152,1.511,9.16,2.432c0.497,0.152,0.776,0.678,0.625,1.176
				C461.943,56.652,461.57,56.914,461.167,56.914z M396.092,54.589c-0.43,0-0.818-0.294-0.916-0.73
				c-0.117-0.507,0.199-1.012,0.707-1.128c3.066-0.701,6.199-1.295,9.311-1.766c0.512-0.078,0.994,0.275,1.07,0.791
				c0.078,0.514-0.277,0.992-0.791,1.07c-3.062,0.463-6.15,1.048-9.17,1.739C396.232,54.582,396.16,54.589,396.092,54.589z
				 M442.829,52.777c-0.047,0-0.092-0.003-0.139-0.01c-3.061-0.453-6.184-0.795-9.279-1.02c-0.519-0.037-0.908-0.487-0.87-1.006
				c0.038-0.518,0.496-0.906,1.005-0.871c3.144,0.227,6.312,0.574,9.419,1.035c0.515,0.074,0.87,0.555,0.794,1.068
				C443.69,52.441,443.288,52.777,442.829,52.777z M414.678,51.78c-0.488,0-0.898-0.376-0.938-0.87
				c-0.039-0.518,0.35-0.971,0.867-1.009c3.133-0.237,6.32-0.358,9.471-0.364h0.002c0.52,0,0.939,0.421,0.941,0.939
				c0,0.521-0.42,0.942-0.939,0.943c-3.107,0.004-6.246,0.125-9.332,0.357C414.727,51.779,414.701,51.78,414.678,51.78z"/>
		</g>
		<g>
			<path fill="#58595B" d="M424.957,757.799c-1.551,0-3.133-0.029-4.701-0.088c-0.52-0.018-0.926-0.455-0.906-0.975
				s0.469-0.961,0.975-0.906c3.141,0.117,6.275,0.115,9.413-0.004c0.526-0.035,0.957,0.385,0.976,0.902
				c0.021,0.521-0.386,0.959-0.903,0.979C428.191,757.768,426.559,757.799,424.957,757.799z M410.836,757.002
				c-0.035,0-0.07-0.002-0.107-0.008c-3.158-0.357-6.336-0.842-9.443-1.438c-0.512-0.1-0.844-0.592-0.746-1.104
				c0.098-0.51,0.594-0.84,1.102-0.746c3.061,0.588,6.189,1.064,9.301,1.42c0.518,0.057,0.887,0.523,0.828,1.041
				C411.715,756.646,411.309,757.002,410.836,757.002z M439.226,756.986c-0.473,0-0.879-0.355-0.934-0.834
				c-0.061-0.518,0.311-0.984,0.827-1.043c3.111-0.357,6.24-0.84,9.3-1.43c0.506-0.104,1.003,0.234,1.102,0.746
				c0.1,0.51-0.234,1.002-0.744,1.102c-3.106,0.602-6.283,1.09-9.443,1.451C439.297,756.982,439.262,756.986,439.226,756.986z
				 M392.227,753.426c-0.082,0-0.166-0.012-0.248-0.033c-3.061-0.836-6.127-1.803-9.111-2.873c-0.49-0.176-0.744-0.715-0.568-1.203
				c0.176-0.49,0.713-0.744,1.203-0.568c2.939,1.053,5.957,2.006,8.973,2.83c0.502,0.137,0.797,0.654,0.66,1.154
				C393.02,753.152,392.641,753.426,392.227,753.426z M457.827,753.387c-0.412,0-0.791-0.273-0.905-0.691
				c-0.139-0.5,0.156-1.018,0.657-1.156c3.015-0.828,6.032-1.783,8.971-2.842c0.486-0.174,1.027,0.078,1.203,0.568
				c0.177,0.49-0.077,1.027-0.567,1.205c-2.982,1.072-6.047,2.041-9.108,2.883C457.994,753.377,457.91,753.387,457.827,753.387z
				 M374.381,747.029c-0.131,0-0.26-0.025-0.385-0.082c-2.893-1.297-5.775-2.723-8.568-4.242c-0.457-0.248-0.625-0.818-0.377-1.275
				s0.82-0.623,1.275-0.377c2.75,1.494,5.59,2.9,8.439,4.178c0.475,0.213,0.686,0.77,0.473,1.244
				C375.082,746.822,374.74,747.029,374.381,747.029z M475.652,746.979c-0.358,0-0.702-0.207-0.858-0.557
				c-0.213-0.475-0.002-1.031,0.473-1.244c2.842-1.275,5.675-2.682,8.422-4.18c0.454-0.248,1.028-0.082,1.277,0.375
				c0.248,0.457,0.08,1.027-0.377,1.277c-2.787,1.521-5.665,2.949-8.552,4.244C475.912,746.951,475.781,746.979,475.652,746.979z
				 M357.723,737.969c-0.176,0-0.354-0.049-0.512-0.152c-2.66-1.723-5.291-3.574-7.816-5.5c-0.414-0.314-0.492-0.904-0.178-1.318
				c0.312-0.414,0.904-0.494,1.318-0.178c2.488,1.895,5.078,3.719,7.701,5.418c0.436,0.281,0.559,0.863,0.275,1.301
				C358.332,737.816,358.031,737.969,357.723,737.969z M492.282,737.912c-0.309,0-0.61-0.152-0.79-0.43
				c-0.283-0.436-0.159-1.018,0.277-1.301c2.616-1.697,5.203-3.521,7.688-5.42c0.415-0.318,1.004-0.234,1.319,0.176
				c0.315,0.414,0.236,1.004-0.177,1.32c-2.523,1.926-5.15,3.777-7.808,5.502C492.635,737.863,492.458,737.912,492.282,737.912z
				 M342.648,726.477c-0.225,0-0.447-0.078-0.627-0.238c-2.371-2.111-4.689-4.34-6.889-6.623c-0.359-0.375-0.35-0.969,0.025-1.33
				c0.375-0.359,0.971-0.35,1.33,0.023c2.168,2.25,4.449,4.443,6.785,6.523c0.387,0.346,0.422,0.941,0.078,1.33
				C343.164,726.371,342.906,726.477,342.648,726.477z M507.342,726.414c-0.258,0-0.517-0.107-0.703-0.314
				c-0.346-0.389-0.312-0.982,0.076-1.328c2.331-2.08,4.613-4.277,6.779-6.529c0.36-0.373,0.955-0.385,1.33-0.025
				c0.376,0.361,0.386,0.957,0.026,1.332c-2.201,2.285-4.516,4.516-6.883,6.625C507.788,726.336,507.564,726.414,507.342,726.414z
				 M329.494,712.832c-0.271,0-0.539-0.117-0.725-0.342c-2.023-2.447-3.975-5-5.803-7.588c-0.301-0.426-0.199-1.012,0.227-1.312
				c0.426-0.299,1.01-0.197,1.312,0.227c1.799,2.551,3.721,5.064,5.713,7.475c0.332,0.4,0.275,0.994-0.125,1.324
				C329.92,712.76,329.705,712.832,329.494,712.832z M520.482,712.758c-0.21,0-0.422-0.072-0.598-0.215
				c-0.4-0.332-0.458-0.926-0.127-1.326c1.988-2.406,3.909-4.926,5.712-7.482c0.299-0.426,0.886-0.527,1.312-0.227
				c0.424,0.299,0.525,0.885,0.227,1.311c-1.83,2.596-3.782,5.152-5.799,7.596C521.023,712.641,520.754,712.758,520.482,712.758z
				 M318.57,697.352c-0.32,0-0.633-0.164-0.809-0.459c-1.623-2.723-3.164-5.543-4.574-8.381c-0.232-0.463-0.043-1.029,0.424-1.262
				c0.469-0.232,1.031-0.041,1.262,0.424c1.389,2.795,2.906,5.572,4.506,8.254c0.266,0.447,0.121,1.025-0.326,1.289
				C318.902,697.309,318.734,697.352,318.57,697.352z M531.401,697.258c-0.163,0-0.33-0.041-0.481-0.131
				c-0.446-0.268-0.593-0.846-0.326-1.291c1.599-2.682,3.113-5.463,4.505-8.268c0.23-0.465,0.796-0.658,1.262-0.424
				c0.465,0.229,0.656,0.795,0.424,1.26c-1.411,2.848-2.951,5.672-4.573,8.395C532.034,697.094,531.722,697.258,531.401,697.258z
				 M310.141,680.395c-0.373,0-0.727-0.223-0.873-0.59c-1.189-2.941-2.279-5.965-3.238-8.988c-0.158-0.494,0.115-1.023,0.611-1.182
				c0.498-0.158,1.025,0.119,1.182,0.613c0.945,2.975,2.018,5.955,3.189,8.852c0.195,0.482-0.039,1.031-0.52,1.227
				C310.377,680.373,310.258,680.395,310.141,680.395z M539.827,680.27c-0.117,0-0.236-0.021-0.352-0.068
				c-0.482-0.193-0.716-0.742-0.521-1.225c1.17-2.898,2.24-5.881,3.185-8.865c0.156-0.494,0.685-0.771,1.181-0.613
				c0.495,0.156,0.771,0.686,0.613,1.18c-0.958,3.031-2.045,6.061-3.232,9.004C540.553,680.049,540.199,680.27,539.827,680.27z
				 M304.408,662.332c-0.428,0-0.814-0.291-0.916-0.725c-0.721-3.082-1.334-6.238-1.818-9.381c-0.078-0.514,0.273-0.994,0.787-1.072
				c0.516-0.078,0.994,0.271,1.072,0.785c0.479,3.094,1.08,6.203,1.793,9.238c0.117,0.506-0.197,1.012-0.701,1.131
				C304.553,662.324,304.479,662.332,304.408,662.332z M545.542,662.191c-0.07,0-0.143-0.006-0.214-0.025
				c-0.507-0.117-0.821-0.623-0.703-1.129c0.707-3.035,1.306-6.145,1.779-9.24c0.079-0.514,0.549-0.867,1.073-0.785
				c0.514,0.076,0.867,0.557,0.787,1.07c-0.481,3.143-1.088,6.301-1.807,9.383C546.356,661.898,545.969,662.191,545.542,662.191z
				 M301.518,643.607c-0.488,0-0.9-0.377-0.938-0.871c-0.242-3.154-0.367-6.367-0.371-9.545c0-0.52,0.42-0.941,0.939-0.941h0.002
				c0.52,0,0.941,0.42,0.941,0.939c0.002,3.129,0.127,6.295,0.365,9.404c0.039,0.518-0.35,0.971-0.867,1.01
				C301.566,643.605,301.541,643.607,301.518,643.607z M548.412,643.463c-0.024,0-0.047-0.002-0.071-0.004
				c-0.52-0.039-0.907-0.49-0.867-1.008c0.234-3.109,0.354-6.273,0.354-9.404l-0.001-0.285c0-0.52,0.42-0.939,0.94-0.939
				c0.521,0,0.941,0.42,0.941,0.939l0.001,0.277c0,3.186-0.121,6.398-0.359,9.553C549.312,643.086,548.9,643.463,548.412,643.463z
				 M301.496,624.656c-0.021,0-0.047-0.002-0.07-0.002c-0.518-0.039-0.906-0.49-0.869-1.01c0.236-3.164,0.596-6.357,1.074-9.49
				c0.076-0.516,0.559-0.871,1.07-0.789c0.516,0.076,0.867,0.557,0.789,1.07c-0.469,3.088-0.824,6.232-1.055,9.35
				C302.398,624.279,301.984,624.656,301.496,624.656z M548.388,624.229c-0.486,0-0.898-0.375-0.937-0.869
				c-0.242-3.111-0.608-6.258-1.09-9.344c-0.079-0.514,0.272-0.994,0.786-1.074c0.519-0.078,0.994,0.271,1.075,0.785
				c0.486,3.135,0.859,6.326,1.105,9.488c0.04,0.518-0.348,0.971-0.865,1.012C548.438,624.229,548.413,624.229,548.388,624.229z
				 M304.346,605.924c-0.072,0-0.143-0.008-0.215-0.023c-0.506-0.117-0.82-0.623-0.705-1.131c0.719-3.092,1.564-6.193,2.516-9.217
				c0.158-0.496,0.689-0.771,1.18-0.615c0.496,0.156,0.773,0.684,0.615,1.18c-0.936,2.979-1.77,6.031-2.475,9.078
				C305.16,605.629,304.773,605.924,304.346,605.924z M545.476,605.506c-0.427,0-0.813-0.291-0.916-0.725
				c-0.718-3.047-1.562-6.098-2.508-9.068c-0.157-0.496,0.116-1.025,0.612-1.184s1.024,0.117,1.182,0.611
				c0.961,3.018,1.816,6.115,2.547,9.209c0.118,0.506-0.195,1.012-0.701,1.133C545.62,605.498,545.547,605.506,545.476,605.506z
				 M310.035,587.84c-0.115,0-0.234-0.021-0.352-0.068c-0.48-0.193-0.715-0.742-0.52-1.223c1.182-2.943,2.494-5.879,3.902-8.729
				c0.232-0.465,0.795-0.656,1.262-0.426s0.658,0.795,0.426,1.26c-1.387,2.807-2.68,5.699-3.844,8.596
				C310.762,587.617,310.408,587.84,310.035,587.84z M539.724,587.451c-0.372,0-0.725-0.221-0.871-0.588
				c-1.172-2.889-2.474-5.77-3.869-8.568c-0.232-0.465-0.043-1.029,0.423-1.262c0.469-0.234,1.031-0.043,1.262,0.422
				c1.417,2.842,2.738,5.77,3.927,8.701c0.196,0.482-0.036,1.029-0.518,1.225C539.961,587.428,539.842,587.451,539.724,587.451z
				 M318.441,570.84c-0.164,0-0.33-0.041-0.48-0.133c-0.447-0.266-0.594-0.842-0.328-1.289c1.623-2.73,3.369-5.43,5.191-8.023
				c0.301-0.424,0.887-0.529,1.312-0.229c0.426,0.299,0.527,0.885,0.229,1.311c-1.795,2.553-3.516,5.213-5.115,7.902
				C319.074,570.676,318.762,570.84,318.441,570.84z M531.276,570.504c-0.32,0-0.632-0.164-0.81-0.459
				c-1.604-2.682-3.332-5.332-5.135-7.881c-0.301-0.424-0.2-1.012,0.226-1.312c0.423-0.299,1.012-0.197,1.312,0.227
				c1.83,2.586,3.584,5.279,5.214,8c0.267,0.445,0.121,1.025-0.324,1.291C531.607,570.459,531.44,570.504,531.276,570.504z
				 M329.342,555.328c-0.209,0-0.422-0.07-0.596-0.215c-0.402-0.328-0.459-0.924-0.129-1.324c2.014-2.443,4.15-4.846,6.35-7.139
				c0.359-0.375,0.955-0.387,1.332-0.027c0.375,0.361,0.387,0.955,0.027,1.33c-2.168,2.26-4.273,4.625-6.256,7.033
				C329.883,555.213,329.613,555.328,329.342,555.328z M520.335,555.037c-0.272,0-0.541-0.117-0.726-0.342
				c-1.995-2.406-4.107-4.766-6.277-7.01c-0.36-0.375-0.351-0.971,0.022-1.332c0.375-0.361,0.971-0.352,1.33,0.021
				c2.205,2.281,4.349,4.676,6.372,7.121c0.332,0.398,0.277,0.992-0.124,1.324C520.758,554.965,520.545,555.037,520.335,555.037z
				 M342.471,541.658c-0.258,0-0.516-0.105-0.701-0.314c-0.346-0.387-0.312-0.982,0.074-1.328c2.371-2.117,4.846-4.168,7.359-6.09
				c0.412-0.316,1.004-0.238,1.32,0.174c0.314,0.414,0.234,1.004-0.178,1.318c-2.475,1.896-4.914,3.914-7.248,6
				C342.918,541.578,342.695,541.658,342.471,541.658z M507.164,541.406c-0.222,0-0.446-0.076-0.625-0.236
				c-2.332-2.072-4.778-4.086-7.27-5.98c-0.413-0.314-0.493-0.906-0.18-1.318c0.314-0.414,0.906-0.494,1.318-0.18
				c2.53,1.924,5.014,3.967,7.381,6.072c0.389,0.344,0.424,0.939,0.078,1.328C507.681,541.301,507.424,541.406,507.164,541.406z
				 M357.52,530.141c-0.309,0-0.611-0.15-0.791-0.428c-0.283-0.436-0.16-1.018,0.277-1.301c2.654-1.729,5.414-3.377,8.195-4.898
				c0.457-0.25,1.027-0.084,1.277,0.373s0.082,1.027-0.375,1.277c-2.738,1.5-5.457,3.123-8.072,4.824
				C357.873,530.092,357.693,530.141,357.52,530.141z M492.073,529.932c-0.176,0-0.352-0.049-0.511-0.15
				c-2.623-1.697-5.347-3.312-8.096-4.807c-0.456-0.248-0.627-0.816-0.379-1.273s0.819-0.627,1.276-0.379
				c2.791,1.514,5.557,3.154,8.221,4.877c0.436,0.283,0.562,0.865,0.279,1.303C492.684,529.779,492.382,529.932,492.073,529.932z
				 M374.137,521.057c-0.359,0-0.701-0.205-0.857-0.555c-0.215-0.473-0.004-1.029,0.469-1.242c2.893-1.305,5.869-2.51,8.848-3.586
				c0.492-0.178,1.029,0.076,1.205,0.564c0.176,0.49-0.076,1.029-0.564,1.207c-2.936,1.059-5.867,2.246-8.713,3.529
				C374.398,521.031,374.266,521.057,374.137,521.057z M475.406,520.891c-0.128,0-0.257-0.027-0.382-0.082
				c-2.859-1.277-5.8-2.459-8.741-3.508c-0.49-0.176-0.745-0.715-0.57-1.203c0.174-0.49,0.708-0.746,1.202-0.57
				c2.988,1.066,5.975,2.266,8.877,3.561c0.475,0.213,0.688,0.77,0.476,1.244C476.111,520.682,475.768,520.891,475.406,520.891z
				 M391.951,514.627c-0.414,0-0.793-0.275-0.906-0.691c-0.139-0.502,0.156-1.02,0.656-1.158c3.055-0.842,6.184-1.576,9.299-2.182
				c0.51-0.102,1.006,0.23,1.105,0.742c0.1,0.51-0.234,1.004-0.744,1.104c-3.068,0.596-6.15,1.32-9.16,2.152
				C392.119,514.615,392.035,514.627,391.951,514.627z M457.554,514.514c-0.082,0-0.165-0.01-0.248-0.033
				c-3.006-0.818-6.091-1.531-9.167-2.119c-0.511-0.098-0.846-0.592-0.748-1.102s0.589-0.842,1.102-0.746
				c3.123,0.596,6.255,1.318,9.308,2.15c0.502,0.137,0.798,0.654,0.661,1.156C458.347,514.238,457.967,514.514,457.554,514.514z
				 M410.549,511.008c-0.471,0-0.877-0.354-0.934-0.834c-0.061-0.518,0.311-0.982,0.826-1.043c3.146-0.365,6.35-0.613,9.523-0.736
				c0.498-0.023,0.959,0.383,0.977,0.902c0.021,0.521-0.383,0.957-0.902,0.977c-3.127,0.125-6.283,0.369-9.381,0.727
				C410.621,511.006,410.586,511.008,410.549,511.008z M438.94,510.959c-0.035,0-0.069-0.004-0.105-0.006
				c-3.095-0.35-6.253-0.582-9.384-0.695c-0.52-0.018-0.926-0.455-0.906-0.973c0.019-0.521,0.475-0.951,0.975-0.908
				c3.178,0.115,6.383,0.352,9.525,0.703c0.517,0.061,0.889,0.525,0.83,1.041C439.821,510.602,439.413,510.959,438.94,510.959z"/>
		</g>
		<g>
			<path fill="#58595B" d="M562.52,268.027h-9.41c-0.519,0-0.94-0.422-0.94-0.941s0.422-0.941,0.94-0.941h9.41
				c0.521,0,0.942,0.422,0.942,0.941S563.04,268.027,562.52,268.027z M543.7,268.027h-6.807c-0.521,0-0.94-0.422-0.94-0.941v-2.604
				c0-0.521,0.42-0.941,0.94-0.941c0.521,0,0.94,0.421,0.94,0.941v1.662h5.866c0.52,0,0.94,0.422,0.94,0.941
				S544.22,268.027,543.7,268.027z M562.52,262.688c-0.52,0-0.94-0.422-0.94-0.941v-9.41c0-0.52,0.421-0.941,0.94-0.941
				c0.521,0,0.942,0.422,0.942,0.941v9.41C563.462,262.266,563.04,262.688,562.52,262.688z M536.894,256.012
				c-0.521,0-0.94-0.42-0.94-0.94v-9.409c0-0.52,0.42-0.941,0.94-0.941c0.521,0,0.94,0.422,0.94,0.941v9.409
				C537.834,255.592,537.415,256.012,536.894,256.012z M562.52,243.867c-0.52,0-0.94-0.422-0.94-0.941v-9.41
				c0-0.52,0.421-0.941,0.94-0.941c0.521,0,0.942,0.422,0.942,0.941v9.41C563.462,243.445,563.04,243.867,562.52,243.867z
				 M536.894,237.192c-0.521,0-0.94-0.422-0.94-0.94v-9.411c0-0.52,0.42-0.94,0.94-0.94c0.521,0,0.94,0.421,0.94,0.94v9.411
				C537.834,236.771,537.415,237.192,536.894,237.192z M562.52,225.047c-0.52,0-0.94-0.422-0.94-0.941v-9.41
				c0-0.52,0.421-0.941,0.94-0.941c0.521,0,0.942,0.422,0.942,0.941v9.41C563.462,224.625,563.04,225.047,562.52,225.047z
				 M536.894,218.371c-0.521,0-0.94-0.42-0.94-0.941v-9.409c0-0.52,0.42-0.94,0.94-0.94c0.521,0,0.94,0.421,0.94,0.94v9.409
				C537.834,217.951,537.415,218.371,536.894,218.371z M562.52,206.226c-0.52,0-0.94-0.421-0.94-0.94v-9.41
				c0-0.521,0.421-0.941,0.94-0.941c0.521,0,0.942,0.421,0.942,0.941v9.41C563.462,205.805,563.04,206.226,562.52,206.226z
				 M536.894,199.551c-0.521,0-0.94-0.421-0.94-0.94v-9.411c0-0.52,0.42-0.94,0.94-0.94c0.521,0,0.94,0.421,0.94,0.94v9.411
				C537.834,199.13,537.415,199.551,536.894,199.551z M562.52,187.404c-0.52,0-0.94-0.42-0.94-0.94v-9.41
				c0-0.52,0.421-0.94,0.94-0.94c0.521,0,0.942,0.421,0.942,0.94v9.41C563.462,186.984,563.04,187.404,562.52,187.404z
				 M536.894,180.73c-0.521,0-0.94-0.422-0.94-0.941v-9.41c0-0.52,0.42-0.94,0.94-0.94c0.521,0,0.94,0.421,0.94,0.94v9.41
				C537.834,180.309,537.415,180.73,536.894,180.73z M562.52,168.584c-0.52,0-0.94-0.421-0.94-0.94v-9.411
				c0-0.52,0.421-0.94,0.94-0.94c0.521,0,0.942,0.421,0.942,0.94v9.411C563.462,168.163,563.04,168.584,562.52,168.584z
				 M536.894,161.91c-0.521,0-0.94-0.422-0.94-0.941v-9.41c0-0.52,0.42-0.941,0.94-0.941c0.521,0,0.94,0.422,0.94,0.941v9.41
				C537.834,161.488,537.415,161.91,536.894,161.91z M562.52,149.764c-0.52,0-0.94-0.421-0.94-0.941v-3.697h-3.83
				c-0.521,0-0.94-0.422-0.94-0.941s0.42-0.941,0.94-0.941h4.771c0.521,0,0.942,0.422,0.942,0.941v4.639
				C563.462,149.343,563.04,149.764,562.52,149.764z M548.339,145.125h-9.41c-0.521,0-0.941-0.422-0.941-0.941
				s0.421-0.941,0.941-0.941h9.41c0.521,0,0.94,0.422,0.94,0.941S548.859,145.125,548.339,145.125z"/>
		</g>
		<g>
			<path fill="#58595B" d="M298.461,631.33c-0.52,0-0.941-0.422-0.941-0.941v-9.41c0-0.521,0.422-0.941,0.941-0.941
				s0.941,0.42,0.941,0.941v9.41C299.402,630.908,298.98,631.33,298.461,631.33z M298.461,612.51c-0.52,0-0.941-0.422-0.941-0.941
				v-9.41c0-0.521,0.422-0.941,0.941-0.941s0.941,0.42,0.941,0.941v9.41C299.402,612.088,298.98,612.51,298.461,612.51z
				 M298.461,593.689c-0.52,0-0.941-0.422-0.941-0.941v-9.41c0-0.52,0.422-0.941,0.941-0.941s0.941,0.422,0.941,0.941v9.41
				C299.402,593.268,298.98,593.689,298.461,593.689z M298.461,574.867c-0.52,0-0.941-0.42-0.941-0.941v-9.41
				c0-0.52,0.422-0.939,0.941-0.939s0.941,0.42,0.941,0.939v9.41C299.402,574.447,298.98,574.867,298.461,574.867z M298.461,556.047
				c-0.52,0-0.941-0.42-0.941-0.941v-9.41c0-0.52,0.422-0.939,0.941-0.939s0.941,0.42,0.941,0.939v9.41
				C299.402,555.627,298.98,556.047,298.461,556.047z M298.461,537.227c-0.52,0-0.941-0.422-0.941-0.941v-9.408
				c0-0.521,0.422-0.941,0.941-0.941s0.941,0.42,0.941,0.941v9.408C299.402,536.805,298.98,537.227,298.461,537.227z
				 M298.461,518.406c-0.52,0-0.941-0.422-0.941-0.939v-9.412c0-0.52,0.422-0.941,0.941-0.941s0.941,0.422,0.941,0.941v9.412
				C299.402,517.984,298.98,518.406,298.461,518.406z M298.461,499.586c-0.52,0-0.941-0.42-0.941-0.941v-9.41
				c0-0.52,0.422-0.941,0.941-0.941s0.941,0.422,0.941,0.941v9.41C299.402,499.166,298.98,499.586,298.461,499.586z
				 M298.461,480.766c-0.52,0-0.941-0.422-0.941-0.941v-9.41c0-0.521,0.422-0.941,0.941-0.941s0.941,0.42,0.941,0.941v9.41
				C299.402,480.344,298.98,480.766,298.461,480.766z M298.461,461.945c-0.52,0-0.941-0.422-0.941-0.941v-9.41
				c0-0.52,0.422-0.941,0.941-0.941s0.941,0.422,0.941,0.941v9.41C299.402,461.523,298.98,461.945,298.461,461.945z
				 M298.461,443.125c-0.52,0-0.941-0.422-0.941-0.941v-9.411c0-0.521,0.422-0.941,0.941-0.941s0.941,0.421,0.941,0.941v9.411
				C299.402,442.703,298.98,443.125,298.461,443.125z M298.461,424.303c-0.52,0-0.941-0.421-0.941-0.94v-9.411
				c0-0.52,0.422-0.94,0.941-0.94s0.941,0.421,0.941,0.94v9.411C299.402,423.882,298.98,424.303,298.461,424.303z M298.461,405.482
				c-0.52,0-0.941-0.422-0.941-0.941v-9.41c0-0.52,0.422-0.94,0.941-0.94s0.941,0.421,0.941,0.94v9.41
				C299.402,405.061,298.98,405.482,298.461,405.482z M298.461,386.662c-0.52,0-0.941-0.422-0.941-0.941v-9.41
				c0-0.52,0.422-0.94,0.941-0.94s0.941,0.421,0.941,0.94v9.41C299.402,386.24,298.98,386.662,298.461,386.662z M298.461,367.842
				c-0.52,0-0.941-0.422-0.941-0.941v-9.41c0-0.52,0.422-0.941,0.941-0.941s0.941,0.422,0.941,0.941v9.41
				C299.402,367.42,298.98,367.842,298.461,367.842z M298.461,349.021c-0.52,0-0.941-0.422-0.941-0.941v-9.41
				c0-0.52,0.422-0.941,0.941-0.941s0.941,0.422,0.941,0.941v9.41C299.402,348.6,298.98,349.021,298.461,349.021z M298.461,330.2
				c-0.52,0-0.941-0.421-0.941-0.94v-9.41c0-0.52,0.422-0.941,0.941-0.941s0.941,0.422,0.941,0.941v9.41
				C299.402,329.779,298.98,330.2,298.461,330.2z M298.461,311.381c-0.52,0-0.941-0.422-0.941-0.941v-9.411
				c0-0.52,0.422-0.94,0.941-0.94s0.941,0.421,0.941,0.94v9.411C299.402,310.959,298.98,311.381,298.461,311.381z M298.461,292.559
				c-0.52,0-0.941-0.42-0.941-0.94v-9.41c0-0.521,0.422-0.94,0.941-0.94s0.941,0.42,0.941,0.94v9.41
				C299.402,292.139,298.98,292.559,298.461,292.559z M298.461,273.739c-0.52,0-0.941-0.422-0.941-0.942v-9.41
				c0-0.519,0.422-0.94,0.941-0.94s0.941,0.422,0.941,0.94v9.41C299.402,273.317,298.98,273.739,298.461,273.739z M298.461,254.918
				c-0.52,0-0.941-0.422-0.941-0.941v-9.409c0-0.521,0.422-0.94,0.941-0.94s0.941,0.42,0.941,0.94v9.409
				C299.402,254.496,298.98,254.918,298.461,254.918z M298.461,236.098c-0.52,0-0.941-0.422-0.941-0.941v-9.41
				c0-0.52,0.422-0.941,0.941-0.941s0.941,0.422,0.941,0.941v9.41C299.402,235.676,298.98,236.098,298.461,236.098z
				 M298.461,217.277c-0.52,0-0.941-0.422-0.941-0.941v-9.41c0-0.52,0.422-0.941,0.941-0.941s0.941,0.422,0.941,0.941v9.41
				C299.402,216.855,298.98,217.277,298.461,217.277z"/>
		</g>
		<g>
			<path fill="#58595B" d="M547.218,596.762c-0.514,0-0.934-0.412-0.941-0.926l-0.152-9.41c-0.009-0.521,0.406-0.949,0.927-0.957
				c0.494-0.043,0.948,0.408,0.955,0.926l0.152,9.41c0.008,0.52-0.406,0.947-0.927,0.957
				C547.227,596.762,547.221,596.762,547.218,596.762z M546.914,577.943c-0.513,0-0.933-0.412-0.941-0.928l-0.149-9.408
				c-0.009-0.52,0.405-0.947,0.926-0.957c0.004,0,0.01,0,0.015,0c0.514,0,0.933,0.412,0.941,0.928l0.149,9.408
				c0.009,0.52-0.405,0.947-0.926,0.957C546.925,577.943,546.919,577.943,546.914,577.943z M546.613,559.123
				c-0.513,0-0.933-0.41-0.941-0.926l-0.152-9.408c-0.008-0.52,0.407-0.949,0.927-0.955c0.005,0,0.011,0,0.015,0
				c0.513,0,0.933,0.41,0.941,0.926l0.151,9.41c0.009,0.518-0.406,0.945-0.926,0.953
				C546.623,559.123,546.617,559.123,546.613,559.123z M546.311,540.307c-0.513,0-0.933-0.412-0.94-0.928l-0.151-9.408
				c-0.008-0.52,0.406-0.947,0.927-0.955c0.005,0,0.01,0,0.015,0c0.513,0,0.934,0.41,0.94,0.926l0.151,9.408
				c0.009,0.52-0.406,0.947-0.927,0.957C546.32,540.307,546.315,540.307,546.311,540.307z"/>
		</g>
		<g>
			<path fill="#58595B" d="M321.617,257.906c-0.508,0-0.926-0.406-0.939-0.916c-0.014-0.521,0.396-0.952,0.916-0.966l9.408-0.241
				c0.518-0.025,0.951,0.396,0.965,0.916s-0.396,0.951-0.918,0.965l-9.406,0.242C321.635,257.906,321.625,257.906,321.617,257.906z
				 M340.434,257.423c-0.51,0-0.928-0.405-0.941-0.917c-0.014-0.52,0.396-0.951,0.916-0.965l9.408-0.241
				c0.008-0.001,0.018-0.001,0.023-0.001c0.51,0,0.928,0.406,0.941,0.917c0.014,0.52-0.396,0.952-0.918,0.966l-9.406,0.24
				C340.447,257.423,340.439,257.423,340.434,257.423z M359.246,256.939c-0.508,0-0.926-0.406-0.941-0.916
				c-0.012-0.521,0.398-0.953,0.918-0.966l9.408-0.242c0.531-0.034,0.949,0.397,0.965,0.917c0.012,0.52-0.396,0.951-0.916,0.965
				l-9.41,0.241C359.264,256.939,359.254,256.939,359.246,256.939z M378.062,256.455c-0.51,0-0.928-0.404-0.941-0.916
				c-0.014-0.52,0.396-0.951,0.918-0.965l9.406-0.242c0.008,0,0.016,0,0.023,0c0.508,0,0.928,0.406,0.941,0.916
				c0.012,0.52-0.396,0.952-0.918,0.965l-9.406,0.242C378.078,256.455,378.07,256.455,378.062,256.455z M396.877,255.973
				c-0.51,0-0.928-0.406-0.943-0.917c-0.012-0.52,0.398-0.951,0.918-0.966l9.408-0.24c0.008-0.001,0.016-0.001,0.023-0.001
				c0.51,0,0.928,0.405,0.941,0.917c0.012,0.52-0.398,0.951-0.918,0.965l-9.406,0.241
				C396.893,255.973,396.883,255.973,396.877,255.973z M415.689,255.489c-0.508,0-0.928-0.405-0.941-0.917
				c-0.012-0.52,0.398-0.951,0.918-0.965l9.408-0.242c0.498-0.047,0.951,0.396,0.965,0.916c0.012,0.52-0.398,0.952-0.918,0.965
				l-9.408,0.242C415.705,255.489,415.697,255.489,415.689,255.489z M434.505,255.006c-0.509,0-0.927-0.406-0.941-0.918
				c-0.014-0.52,0.396-0.951,0.917-0.965l9.407-0.241c0.009-0.001,0.017-0.001,0.024-0.001c0.509,0,0.928,0.406,0.941,0.917
				c0.013,0.521-0.397,0.952-0.917,0.965l-9.408,0.242C434.521,255.006,434.512,255.006,434.505,255.006z M453.318,254.521
				c-0.508,0-0.927-0.406-0.939-0.916c-0.013-0.52,0.397-0.952,0.917-0.965l9.407-0.242c0.008,0,0.017,0,0.023,0
				c0.51,0,0.927,0.404,0.941,0.916c0.013,0.52-0.397,0.952-0.918,0.965l-9.406,0.242
				C453.335,254.521,453.327,254.521,453.318,254.521z M472.133,254.039c-0.508,0-0.927-0.406-0.939-0.918
				c-0.014-0.52,0.396-0.951,0.917-0.965l9.407-0.241c0.008-0.001,0.017-0.001,0.024-0.001c0.508,0,0.927,0.406,0.94,0.917
				c0.013,0.521-0.396,0.952-0.917,0.966l-9.407,0.241C472.149,254.039,472.142,254.039,472.133,254.039z M490.948,253.555
				c-0.51,0-0.928-0.406-0.941-0.916c-0.013-0.521,0.397-0.953,0.918-0.965l9.406-0.242c0.008-0.001,0.017-0.001,0.024-0.001
				c0.509,0,0.927,0.405,0.941,0.917c0.012,0.52-0.397,0.951-0.917,0.965l-9.408,0.241
				C490.964,253.555,490.955,253.555,490.948,253.555z M509.762,253.07c-0.508,0-0.927-0.404-0.94-0.916
				c-0.014-0.52,0.396-0.951,0.917-0.965l9.407-0.242c0.008,0,0.017,0,0.023,0c0.51,0,0.928,0.406,0.941,0.916
				c0.014,0.521-0.396,0.952-0.917,0.966l-9.407,0.241C509.777,253.07,509.771,253.07,509.762,253.07z M528.576,252.588
				c-0.509,0-0.926-0.406-0.94-0.916c-0.013-0.521,0.397-0.952,0.918-0.966l9.406-0.241c0.487-0.044,0.952,0.396,0.965,0.916
				s-0.397,0.951-0.917,0.965l-9.407,0.242C528.593,252.588,528.584,252.588,528.576,252.588z M547.391,252.104
				c-0.509,0-0.927-0.405-0.94-0.917c-0.013-0.52,0.397-0.951,0.917-0.965l9.407-0.242c0.009,0,0.018,0,0.024,0
				c0.509,0,0.927,0.404,0.94,0.916c0.014,0.52-0.396,0.952-0.917,0.965l-9.407,0.242
				C547.406,252.104,547.398,252.104,547.391,252.104z"/>
		</g>
		<g>
			<path fill="#58595B" d="M556.539,280.09c-0.004,0-0.008,0-0.011,0c-0.521-0.007-0.938-0.434-0.931-0.953l0.113-9.41
				c0.005-0.52,0.433-0.953,0.952-0.929c0.521,0.006,0.936,0.433,0.931,0.952l-0.114,9.41
				C557.474,279.676,557.053,280.09,556.539,280.09z M556.765,261.271c-0.004,0-0.009,0-0.012,0
				c-0.521-0.007-0.937-0.433-0.93-0.952l0.111-9.41c0.008-0.516,0.428-0.93,0.942-0.93c0.003,0,0.007,0,0.012,0
				c0.52,0.006,0.936,0.433,0.93,0.952l-0.113,9.409C557.698,260.855,557.278,261.271,556.765,261.271z"/>
		</g>
		<g>
			
				<path fill="#58595B" stroke="#ED1C24" stroke-width="2" stroke-linecap="round" stroke-linejoin="round" stroke-miterlimit="10" stroke-dasharray="10" d="
				M367.096,310.604"/>
		</g>
		<g>
			<path fill="#58595B" d="M472.54,297.275c-0.464,0-0.868-0.342-0.932-0.814c-0.07-0.515,0.291-0.989,0.807-1.059l9.325-1.262
				c0.514-0.07,0.988,0.293,1.06,0.807c0.069,0.515-0.292,0.988-0.808,1.059l-9.325,1.262
				C472.625,297.273,472.581,297.275,472.54,297.275z M491.191,294.752c-0.465,0-0.868-0.342-0.933-0.814
				c-0.07-0.515,0.291-0.989,0.807-1.059l9.326-1.262c0.52-0.069,0.989,0.292,1.058,0.807c0.071,0.515-0.29,0.988-0.806,1.059
				l-9.327,1.262C491.274,294.75,491.232,294.752,491.191,294.752z M509.841,292.229c-0.463,0-0.868-0.342-0.932-0.814
				c-0.069-0.516,0.291-0.989,0.807-1.059l9.326-1.262c0.514-0.066,0.987,0.292,1.059,0.807c0.07,0.514-0.291,0.988-0.808,1.059
				l-9.325,1.262C509.926,292.227,509.882,292.229,509.841,292.229z M528.492,289.705c-0.465,0-0.868-0.343-0.933-0.814
				c-0.068-0.516,0.291-0.989,0.808-1.06l9.325-1.262c0.52-0.07,0.989,0.292,1.059,0.807s-0.291,0.989-0.807,1.06l-9.326,1.262
				C528.576,289.702,528.533,289.705,528.492,289.705z M547.142,287.182c-0.464,0-0.866-0.344-0.931-0.814
				c-0.071-0.516,0.29-0.989,0.806-1.059l9.327-1.262c0.513-0.069,0.986,0.291,1.058,0.806c0.07,0.515-0.291,0.989-0.807,1.06
				l-9.325,1.261C547.227,287.179,547.184,287.182,547.142,287.182z"/>
		</g>
		<g>
			<path fill="#58595B" d="M481.739,507.281c-0.001,0-0.001,0-0.004,0l-7.678-0.025c-0.519-0.002-0.938-0.426-0.937-0.945
				s0.423-0.938,0.94-0.938c0.001,0,0.003,0,0.004,0l7.677,0.027c0.52,0,0.94,0.424,0.938,0.943S482.257,507.281,481.739,507.281z
				 M464.651,507.223c-0.001,0-0.001,0-0.002,0l-9.41-0.031c-0.521-0.002-0.94-0.426-0.939-0.943
				c0.002-0.52,0.424-0.939,0.941-0.939c0.002,0,0.002,0,0.003,0l9.411,0.033c0.52,0.002,0.939,0.424,0.938,0.943
				S465.17,507.223,464.651,507.223z M445.831,507.158c-0.002,0-0.002,0-0.002,0l-9.412-0.031c-0.519-0.002-0.938-0.426-0.937-0.943
				c0.002-0.52,0.424-0.939,0.941-0.939c0,0,0.001,0,0.003,0l9.41,0.033c0.519,0.002,0.938,0.424,0.938,0.943
				C446.771,506.74,446.349,507.158,445.831,507.158z M427.01,507.094c0,0,0,0-0.004,0l-9.41-0.031
				c-0.518-0.002-0.938-0.424-0.936-0.945c0.002-0.518,0.422-0.938,0.939-0.938c0.002,0,0.004,0,0.004,0l9.41,0.033
				c0.521,0.002,0.939,0.424,0.938,0.945C427.949,506.676,427.529,507.094,427.01,507.094z M408.189,507.029c0,0,0,0-0.002,0
				l-9.41-0.031c-0.52-0.002-0.939-0.424-0.938-0.945c0.002-0.518,0.422-0.936,0.941-0.936h0.002l9.41,0.031
				c0.52,0.002,0.939,0.424,0.938,0.943C409.131,506.611,408.709,507.029,408.189,507.029z M389.371,506.967
				c-0.002,0-0.004,0-0.004,0l-9.41-0.033c-0.521-0.002-0.941-0.424-0.939-0.943s0.424-0.938,0.941-0.938c0.002,0,0.002,0,0.004,0
				l9.408,0.031c0.521,0.002,0.941,0.426,0.939,0.943C390.309,506.547,389.887,506.967,389.371,506.967z M370.549,506.902
				c0,0-0.002,0-0.004,0l-9.41-0.033c-0.518-0.002-0.939-0.424-0.938-0.943s0.424-0.938,0.941-0.938c0,0,0.002,0,0.004,0l9.41,0.031
				c0.52,0.002,0.939,0.426,0.938,0.945C371.488,506.482,371.068,506.902,370.549,506.902z"/>
		</g>
		<g>
			<path fill="#58595B" d="M347.24,513.605c-0.518,0-0.938-0.42-0.941-0.938c0-0.52,0.418-0.941,0.939-0.943l9.41-0.029
				c0,0,0,0,0.002,0c0.52,0,0.939,0.42,0.941,0.939s-0.418,0.941-0.938,0.943l-9.412,0.027
				C347.242,513.605,347.242,513.605,347.24,513.605z M366.061,513.551c-0.518,0-0.939-0.42-0.941-0.939
				c0-0.52,0.42-0.941,0.939-0.943l9.41-0.025h0.002c0.52,0,0.939,0.418,0.941,0.938s-0.418,0.941-0.938,0.943l-9.41,0.027
				C366.062,513.551,366.062,513.551,366.061,513.551z M384.881,513.496c-0.518,0-0.939-0.418-0.939-0.938
				c-0.004-0.521,0.418-0.943,0.938-0.943l9.41-0.029c0.002,0,0.002,0,0.004,0c0.516,0,0.938,0.42,0.941,0.939
				c0,0.52-0.42,0.941-0.939,0.943l-9.41,0.027C384.883,513.496,384.881,513.496,384.881,513.496z M403.703,513.441
				c-0.52,0-0.939-0.42-0.941-0.938c-0.002-0.521,0.418-0.943,0.938-0.943l9.41-0.029c0.002,0,0.002,0,0.004,0
				c0.518,0,0.938,0.42,0.939,0.938c0.004,0.521-0.418,0.943-0.938,0.945l-9.41,0.027
				C403.703,513.441,403.703,513.441,403.703,513.441z M422.523,513.387c-0.52,0-0.939-0.422-0.941-0.939
				c-0.002-0.52,0.418-0.941,0.938-0.943l9.411-0.025c0.001,0,0.002,0,0.002,0c0.52,0,0.939,0.418,0.941,0.938
				s-0.418,0.941-0.938,0.943l-9.411,0.027H422.523z M441.343,513.332c-0.518,0-0.938-0.418-0.94-0.939
				c-0.002-0.52,0.419-0.941,0.938-0.943l9.41-0.027c0.001,0,0.002,0,0.003,0c0.519,0,0.939,0.42,0.941,0.939
				c0.001,0.52-0.418,0.941-0.938,0.943l-9.41,0.027C441.346,513.332,441.344,513.332,441.343,513.332z M460.164,513.277
				c-0.52,0-0.94-0.42-0.942-0.939c-0.001-0.52,0.419-0.941,0.939-0.943l9.41-0.027c0.001,0,0.001,0,0.003,0
				c0.518,0,0.938,0.42,0.94,0.938c0.003,0.52-0.418,0.941-0.938,0.945L460.164,513.277
				C460.165,513.277,460.165,513.277,460.164,513.277z M478.984,513.223c-0.519,0-0.939-0.422-0.941-0.939
				c-0.001-0.52,0.419-0.941,0.938-0.945l9.41-0.025c0.001,0,0.002,0,0.002,0c0.52,0,0.939,0.42,0.941,0.939
				s-0.419,0.941-0.938,0.943l-9.41,0.027C478.986,513.223,478.985,513.223,478.984,513.223z"/>
		</g>
		<g>
			<path fill="#58595B" d="M546.782,326.494c-0.004,0-0.008,0-0.012,0c-0.519-0.006-0.936-0.434-0.93-0.952l0.089-7.675
				c0.007-0.516,0.427-0.93,0.941-0.93c0.004,0,0.007,0,0.011,0c0.521,0.005,0.936,0.432,0.931,0.951l-0.09,7.676
				C547.717,326.08,547.297,326.494,546.782,326.494z M546.98,309.409c-0.003,0-0.007,0-0.01,0c-0.52-0.006-0.937-0.433-0.931-0.952
				l0.11-9.409c0.006-0.517,0.426-0.931,0.94-0.931c0.004,0,0.007,0,0.011,0c0.52,0.007,0.937,0.433,0.931,0.953l-0.11,9.408
				C547.916,308.995,547.496,309.409,546.98,309.409z M547.2,290.59c-0.003,0-0.007,0-0.011,0c-0.521-0.006-0.937-0.432-0.931-0.952
				l0.109-9.409c0.006-0.52,0.446-0.959,0.953-0.93c0.519,0.006,0.936,0.432,0.929,0.951l-0.108,9.41
				C548.135,290.176,547.714,290.59,547.2,290.59z M547.42,271.771c-0.004,0-0.008,0-0.011,0c-0.52-0.007-0.937-0.434-0.93-0.953
				l0.108-9.41c0.007-0.516,0.427-0.93,0.941-0.93c0.004,0,0.007,0,0.011,0c0.52,0.006,0.937,0.434,0.93,0.952l-0.108,9.41
				C548.354,271.356,547.935,271.771,547.42,271.771z M547.638,252.951c-0.003,0-0.007,0-0.01,0
				c-0.52-0.006-0.938-0.432-0.931-0.951l0.11-9.41c0.005-0.521,0.396-0.962,0.951-0.93c0.52,0.006,0.937,0.432,0.931,0.951
				l-0.11,9.41C548.573,252.537,548.153,252.951,547.638,252.951z M547.858,234.133c-0.004,0-0.008,0-0.012,0
				c-0.519-0.006-0.936-0.433-0.93-0.953l0.109-9.409c0.006-0.52,0.437-0.931,0.951-0.93c0.521,0.005,0.938,0.433,0.931,0.952
				l-0.109,9.409C548.793,233.719,548.372,234.133,547.858,234.133z"/>
		</g>
		<g>
			<path fill="#58595B" d="M367.096,311.545c-0.467,0-0.871-0.344-0.934-0.818c-0.066-0.515,0.295-0.987,0.811-1.056l9.33-1.231
				c0.52-0.071,0.986,0.294,1.055,0.809c0.068,0.516-0.293,0.988-0.809,1.057l-9.33,1.232
				C367.178,311.542,367.135,311.545,367.096,311.545z M385.754,309.08c-0.465,0-0.869-0.344-0.932-0.817
				c-0.068-0.516,0.293-0.988,0.809-1.056l9.33-1.232c0.518-0.07,0.986,0.293,1.055,0.809s-0.293,0.988-0.811,1.057l-9.326,1.232
				C385.836,309.078,385.795,309.08,385.754,309.08z M404.412,306.615c-0.465,0-0.869-0.344-0.932-0.817
				c-0.068-0.515,0.293-0.987,0.809-1.056l9.33-1.232c0.514-0.07,0.988,0.295,1.057,0.81c0.066,0.515-0.295,0.987-0.811,1.056
				l-9.33,1.232C404.494,306.613,404.453,306.615,404.412,306.615z"/>
		</g>
	</g>
	<text transform="matrix(1 0 0 1 139.9727 844.0547)" font-family="'MyriadPro-Regular'" font-size="18">Reference image taken from https://patents.google.com/patent/US2032233A/</text>
</g>
</svg>
