<?xml version="1.0" encoding="utf-8"?>
<!-- Generator: Adobe Illustrator 16.0.0, SVG Export Plug-In . SVG Version: 6.00 Build 0)  -->
<!DOCTYPE svg PUBLIC "-//W3C//DTD SVG 1.1//EN" "http://www.w3.org/Graphics/SVG/1.1/DTD/svg11.dtd">
<svg version="1.1" id="Layer_1" xmlns="http://www.w3.org/2000/svg" xmlns:xlink="http://www.w3.org/1999/xlink" x="0px" y="0px"
	 width="396px" height="312.075px" viewBox="0 0 396 312.075" enable-background="new 0 0 396 312.075" xml:space="preserve">
<path fill="#FFFFFF" stroke="#000000" stroke-width="0.25" stroke-miterlimit="10" d="M84.599,196.079l0.721,0.004v-8.424h7.488
	v8.424h12.383v-8.424h20.088v8.424H126v3.834c0,3.978,3.225,7.201,7.201,7.201h11.52v-8.785h20.16v8.785h19.439v-8.785h27.362v8.785
	h19.438v-8.785h20.159v8.785H262.8c3.978,0,7.2-3.225,7.2-7.201v-3.834h0.721v-8.424h20.088v8.424h12.385v-8.424h7.488v8.424h0.719
	v-0.004c7.016-0.195,12.601-5.938,12.601-12.955V65.042c0-7.018-5.585-12.76-12.601-12.955v-0.006h-0.719v8.426h-7.488v-8.426
	h-12.385v8.426h-20.088v-8.426H125.279v8.426h-20.088v-8.426H92.808v8.426H85.32v-8.42h-0.721C77.585,52.282,72,58.024,72,65.042
	v118.082C72,190.141,77.585,195.883,84.599,196.079z M126,79.081h144v90.001H126V79.081z"/>
<path fill="#FFFFFF" stroke="#000000" stroke-width="0.25" stroke-miterlimit="10" d="M123.374,252.154
	c5.147-0.003,9.901-2.754,12.47-7.217l14.505-25.203l-0.007-8.784l-21.528,0.018l0.007,8.783l-10.944,0.008l-0.007-8.783
	l-8.928,0.008l0.021,26.784C108.969,245.719,115.421,252.161,123.374,252.154z M120.633,242.499c-2.62-1.508-3.52-4.854-2.013-7.474
	c1.507-2.618,4.853-3.521,7.472-2.013c2.62,1.508,3.521,4.854,2.013,7.472C126.597,243.104,123.252,244.006,120.633,242.499z"/>
<path fill="#FFFFFF" stroke="#000000" stroke-width="0.25" stroke-miterlimit="10" d="M287.037,237.767l0.021-26.784l-8.931-0.008
	l-0.006,8.783l-10.942-0.008l0.006-8.783l-21.527-0.018l-0.008,8.784l14.506,25.203c2.568,4.463,7.322,7.214,12.469,7.217
	C280.578,252.161,287.031,245.719,287.037,237.767z M267.895,240.484c-1.508-2.618-0.606-5.964,2.015-7.472
	c2.618-1.508,5.963-0.605,7.471,2.013c1.509,2.62,0.606,5.966-2.012,7.474C272.746,244.006,269.402,243.104,267.895,240.484z"/>
<path fill="#FFFFFF" stroke="#000000" stroke-width="0.25" stroke-miterlimit="10" d="M169.755,210.948
	c-5.147,0.004-9.901,2.754-12.47,7.217l-14.505,25.203l0.007,8.784l21.528-0.017l-0.007-8.784l10.944-0.009l0.007,8.785l8.928-0.008
	l-0.021-26.785C184.161,217.383,177.708,210.941,169.755,210.948z M172.497,220.604c2.62,1.508,3.52,4.854,2.013,7.473
	c-1.507,2.619-4.853,3.521-7.472,2.014c-2.62-1.508-3.521-4.854-2.013-7.473C166.532,219.999,169.877,219.097,172.497,220.604z"/>
<path fill="#FFFFFF" stroke="#000000" stroke-width="0.25" stroke-miterlimit="10" d="M211.832,225.336l-0.02,26.783l8.928,0.008
	l0.006-8.783l10.945,0.008l-0.008,8.783l21.528,0.018l0.006-8.783l-14.504-25.203c-2.567-4.463-7.321-7.215-12.471-7.217
	C218.291,210.941,211.84,217.383,211.832,225.336z M230.975,222.618c1.508,2.619,0.607,5.965-2.012,7.473s-5.965,0.605-7.473-2.014
	s-0.607-5.965,2.014-7.473C226.123,219.097,229.467,219.999,230.975,222.618z"/>
<path fill="#FFFFFF" stroke="#000000" stroke-width="0.25" stroke-miterlimit="10" d="M216.074,129.6c7.953,0,14.4-6.45,14.4-14.404
	c0-7.953-6.447-14.4-14.4-14.4s-14.4,6.447-14.4,14.4C201.674,123.15,208.121,129.6,216.074,129.6z M212.043,111.165h8.062v8.063
	h-8.062V111.165z"/>
<path fill="#FFFFFF" stroke="#000000" stroke-width="0.25" stroke-miterlimit="10" d="M179.925,129.6c7.953,0,14.4-6.45,14.4-14.404
	c0-7.953-6.447-14.4-14.4-14.4c-7.953,0-14.4,6.447-14.4,14.4C165.525,123.15,171.972,129.6,179.925,129.6z M175.894,111.165h8.063
	v8.063h-8.063V111.165z"/>
<path fill="#FFFFFF" stroke="#000000" stroke-width="0.25" stroke-miterlimit="10" d="M321.678,244.081
	c7.953,0,14.4-6.447,14.4-14.4c0-7.954-6.447-14.401-14.4-14.401s-14.4,6.447-14.4,14.401
	C307.277,237.633,313.725,244.081,321.678,244.081z M317.646,225.647h8.062v8.062h-8.062V225.647z"/>
<path fill="#FFFFFF" stroke="#000000" stroke-width="0.25" stroke-miterlimit="10" d="M74.322,244.081
	c7.953,0,14.4-6.447,14.4-14.401c0-7.953-6.447-14.4-14.4-14.4c-7.953,0-14.4,6.447-14.4,14.4
	C59.921,237.633,66.369,244.081,74.322,244.081z M70.291,225.647h8.063v8.062h-8.063V225.647z"/>
<path fill="#FFFFFF" stroke="#000000" stroke-width="0.25" stroke-miterlimit="10" d="M102.67,204.2v39.75
	c0,0.791-0.65,1.43-1.44,1.43h-5.91c-0.79,0-1.44-0.639-1.44-1.43v-32.41c0-1.189-0.96-2.16-2.16-2.16H56.9
	c-4.89,0-8.88-3.889-9-8.779h9.98V39.03h8.79V200.6h32.4C101.05,200.6,102.67,202.209,102.67,204.2z"/>
<line fill="#FFFFFF" stroke="#000000" stroke-width="0.25" stroke-miterlimit="10" x1="62.275" y1="183.661" x2="62.274" y2="56.51"/>
<path fill="#FFFFFF" stroke="#000000" stroke-width="0.25" stroke-miterlimit="10" d="M348.102,200.6
	c-0.121,4.891-4.11,8.779-9,8.779h-34.82c-1.2,0-2.16,0.971-2.16,2.16v32.41c0,0.791-0.65,1.43-1.439,1.43h-5.91
	c-0.789,0-1.439-0.639-1.439-1.43V204.2c0-1.99,1.609-3.601,3.6-3.601h32.4V39.03h8.79V200.6H348.102z"/>
<line fill="#FFFFFF" stroke="#000000" stroke-width="0.25" stroke-miterlimit="10" x1="333.725" y1="183.661" x2="333.725" y2="56.51"/>
<path fill="#FFFFFF" stroke="#000000" stroke-width="0.25" stroke-miterlimit="10" d="M243.383,169.083
	c4.852,0,8.784-4.485,8.784-9.337V87.743c0-4.971-4.029-8.662-9-8.662 M153.167,79.081c-4.971,0-9,3.691-9,8.662v72.003
	c0,4.852,3.933,9.337,8.784,9.337 M183.767,160.107h-18v-8.064h18V160.107z M230.567,160.107h-18v-8.064h18V160.107z
	 M234.167,124.678c0,4.975-4.029,9.005-9,9.005h-54c-4.971,0-9-4.031-9-9.005v-18.215c0-4.971,4.029-9,9-9h54c4.971,0,9,4.029,9,9
	V124.678z"/>
<path fill="none" stroke="#000000" stroke-width="0.25" stroke-miterlimit="10" d="M350.6,253.364c0,1.907-1.627,3.454-3.633,3.454
	H49.033c-2.006,0-3.633-1.547-3.633-3.454V39.249c0-1.907,1.626-3.453,3.633-3.453h297.934c2.006,0,3.633,1.546,3.633,3.453V253.364
	z"/>
</svg>
