<?xml version="1.0" encoding="utf-8"?>
<!-- Generator: Adobe Illustrator 16.0.0, SVG Export Plug-In . SVG Version: 6.00 Build 0)  -->
<!DOCTYPE svg PUBLIC "-//W3C//DTD SVG 1.1//EN" "http://www.w3.org/Graphics/SVG/1.1/DTD/svg11.dtd">
<svg version="1.1" id="Layer_1" xmlns="http://www.w3.org/2000/svg" xmlns:xlink="http://www.w3.org/1999/xlink" x="0px" y="0px"
	 width="283.465px" height="283.465px" viewBox="560.268 254.268 283.465 283.465"
	 enable-background="new 560.268 254.268 283.465 283.465" xml:space="preserve">
<g id="cross">
	<path fill="#FF0000" d="M699.832,401.953v-2.367c0-0.783-0.635-1.417-1.417-1.417h-2.367c-0.51-1.401-0.51-2.938,0-4.337h2.367
		c0.783,0,1.417-0.635,1.417-1.418v-2.367c1.4-0.51,2.936-0.51,4.337,0v2.367c0,0.783,0.634,1.418,1.417,1.418h2.367
		c0.51,1.399,0.51,2.936,0,4.337h-2.367c-0.783,0-1.417,0.634-1.417,1.417v2.367C702.768,402.463,701.232,402.463,699.832,401.953z"
		/>
</g>
<g id="reliefs">
	
		<line fill="#FFFFFF" stroke="#231F20" stroke-width="0.25" stroke-miterlimit="10" x1="701.988" y1="389.664" x2="702" y2="381.827"/>
	
		<line fill="#FFFFFF" stroke="#231F20" stroke-width="0.25" stroke-miterlimit="10" x1="695.658" y1="395.991" x2="687.827" y2="395.999"/>
	
		<line fill="#FFFFFF" stroke="#231F20" stroke-width="0.25" stroke-miterlimit="10" x1="708.328" y1="395.995" x2="716.173" y2="395.999"/>
	
		<line fill="#FFFFFF" stroke="#231F20" stroke-width="0.25" stroke-miterlimit="10" x1="701.988" y1="402.335" x2="702" y2="410.173"/>
</g>
</svg>
